<svg xmlns="http://www.w3.org/2000/svg" viewBox="0 0 134.12 160.87"><defs><style>.cls-1{fill:#e986d4;}</style></defs><g id="Lag_2" data-name="Lag 2"><g id="Layer_10" data-name="Layer 10"><path class="cls-1" d="M124.92,59.61c.71.84,1.22.34,1.85-.23s1.3-.63,1.94.33c.2.3.34.29.53,0s.35-.36.5-.27c.38.23.77.74,1.11.2.59-1,1.52-.62,2-1.84.05-.15.36.19.55.31s.39.11.46-.33a9.29,9.29,0,0,0,.22-1.74,3.62,3.62,0,0,0-1-2.67c-.83-.63-1.75-1.2-2.49-.87a2.26,2.26,0,0,1-1.85-.33c-.32-.16-.57.09-.69.52s-.24.41-.47.24-.61-.27-.78.15-.42.62-.73.41a2.34,2.34,0,0,0-1.82-.34,5.37,5.37,0,0,0-1.16.36c-.25-.78-.52-1.54-.84-2.3a1.56,1.56,0,0,1,.58.13c.32.07.61.06.75-.34.05-.12.09-.29.17-.31.37,0,.83.13,1.12-.08s.41-.82.63-1.18c.11-.18.34-.18.52-.25l1.08-.47a4.39,4.39,0,0,1,1.09-.42c1.12-.06,1.44-1.38,1.72-2.73a2.3,2.3,0,0,0-.3-1.09,18,18,0,0,0-.91-1.74c-.68-1.06-1.89-2-2.38-1.79-1.1.43-1.82,1.46-3.4,1.16-.15,0-.06.48-.15.67s-.2.47-.39.41a2,2,0,0,0-2.32.61c-.35.33-.68.78-1.3.65a1.19,1.19,0,0,0-.6,0c-.25-.3-.51-.58-.78-.87a1,1,0,0,0,.39-1c0-.3.13-.33.49-.1a3.65,3.65,0,0,0,.8.42c.23.05.58,0,.58-.12,0-.65.11-1.15.86-1a1.6,1.6,0,0,1,.7-1.7,1.14,1.14,0,0,0,.32-.89,2.66,2.66,0,0,1,.6-1.81.65.65,0,0,0,0-.67,16.82,16.82,0,0,0-1.56-2.39,6.38,6.38,0,0,1-2-1.43.63.63,0,0,0-.79-.11c-.46.38-.71,1-1.66.9s-.91.78-1.67.92c-.51.1-1,.22-1.15.59-.55,1-1.14,2.05-1.72,3.08l-.27.47q-.54-.3-1.08-.57a1,1,0,0,0,.34-1.56c0-.09,0-.24,0-.25,1.54-.36,1.34-1.69,2.07-2.49.2-.21.19-.56.44-.74s1.3.07,1.27-.47a8.06,8.06,0,0,0-.3-1.39.38.38,0,0,1,0-.3c.31-.55-.51-1.4-.71-2.1a2,2,0,0,0-1.34-1l-1.34-.49a7.78,7.78,0,0,0-2.56-.42c-.71,0-1.21.16-1.41.46-.65,1-2.38,1.64-2.15,2.81,0,.09-.1.18-.22.24a2,2,0,0,0-1.13,1.83,3,3,0,0,1-1,2.2c-.13.13,0,.38.1.56s.36.45.25.55a1.67,1.67,0,0,0-.41.5,21.63,21.63,0,0,0-4.1.19c0-.28,0-.57,0-.86a1.28,1.28,0,0,0-.94-1.24c.11-.47.23-.93-.47-1.27-.17-.09-.15-.38,0-.55A11.33,11.33,0,0,1,98,31.27a1.16,1.16,0,0,0,.25-.28,7.63,7.63,0,0,0-1-.17,1.68,1.68,0,0,1-.36-.06,2.19,2.19,0,0,0-.12-.33c.51-.49.5-.87-.09-1.28a7.36,7.36,0,0,0-2.16-.95c-.81-.24-1.66-.51-2.34-.77a4.52,4.52,0,0,0-3,1l-.28.5-.06.06c-.43.52-1,.1-1.45.22a.34.34,0,0,0-.08-.09,34.38,34.38,0,0,0-.81-6.86l.07-.08c.19-.2.3-.57.5-.62.65-.15,1.2-.91,2.09.11.19-.14.27-.64.55-.41.47.4.84.47,1-.22.13-.5.36-.69.81-.2s.88.62,1.18.25.35-1.11.78-1.12.37-1.31.71-1.73a3.46,3.46,0,0,0,.13-1.61,3.82,3.82,0,0,0-1-2.06c-1.27-1.15-2.42-1.71-3.18-1.39a1.38,1.38,0,0,1-1.56-.25c-.37-.27-.6-.21-.72,0-.38.62-1,.76-1.62,1a.69.69,0,0,0-.38.58c-.06.47-.27.56-.7.37-.28-.13-.48,0-.5.35s-.15.67-.46.62a16.61,16.61,0,0,0-2.43-3.58c.38,0,.79,0,.58-.68,0-.14.2-.2.4-.13.47.16.79.18.52-.47-.13-.29-.09-.42.05-.49.36-.17.34-.62-.43-1.48-.36-.38-.39-.55-.1-.46s.8.29,1.16.38c1,.28,1.37,0,.74-1.07s-.89-1.73-.5-2.08-.23-1.17-1.22-2a4.31,4.31,0,0,0-1.84-.93c-1,0-2.27.05-2.32.65,0,.35-.52.5-1.12.62s-.6.48-.29.91c.1.16.28.37.15.42-.44.16-1,.33-1.46.52-.85.35-.82.35.56,1.07.39.25.42.32.1.36-.79.13-.73.56-.43,1a1.25,1.25,0,0,1,.18.37,15.06,15.06,0,0,0-3.89-.75c0-.15-.43-.32-.3-.39A1.52,1.52,0,0,0,73.23,6a5.25,5.25,0,0,1,.06-1.19c0-.34-.1-.66-.62-1s-.91-.58-1.36-.88a2.61,2.61,0,0,1-.72-1.57c0-.17-.41-.31-.62-.44.42-.25.67-.44.07-.57a18.35,18.35,0,0,0-2-.33A3.27,3.27,0,0,0,66.3.45c-.63.35-.93.67-.82.92.31.75-.26,1.64-1.26,2.69-.08.09-.26.25-.22.25,1.35,0-.32,1,.2,1.29.07,0,0,.16.1.17.55.1,1,.24.48.76.24.18.83.16.9.44.16.65.36,1.29.55,1.93A18,18,0,0,0,63,10.32a.93.93,0,0,1,.1-.2c.13-.21.23-.38,0-.41-.52-.07-.75-.28-.43-.8s-.11-.64-.85-.51S60.49,8.67,61,8c-1-.06-1.12-.77-1.57-1.22a.75.75,0,0,0-.68-.22c-.75.09-1.11-.09-1.28-.45s-.8-.18-1.58.18l-1.37.67a1.16,1.16,0,0,0-.68.73c-.19.88-.3,1.77.17,2.13A.89.89,0,0,1,54.38,11c-.22.74.07,1,.63.91a1.31,1.31,0,0,1,1.25.29,20.38,20.38,0,0,0,1.61,1.61.31.31,0,0,1,.34.19,25.85,25.85,0,0,0-2.34,2.67.39.39,0,0,1,0-.21c0-.94-.35-1.18-1.25-1-.26.06-.56.17-.72.09a3.89,3.89,0,0,1-1.18-.92c-.34-.45-1.07-.18-2,.57-.41.32-.42.28-.06-.56.14-.33.33-.73.2-.69A6.6,6.6,0,0,0,48.35,15a3.07,3.07,0,0,0-.62.81c-.15.28-.33.81-.27.83.5.24.25,1.64.82,1.81s.68,1,1,1.56.79.6,1.19.88a4.5,4.5,0,0,1,1.2.48s.09.12.17.08c.47-.3.76-.24.85.19-.41.77-.79,1.56-1.16,2.35,0,0,0,0,0,0-.83.64-1.22.14-1.71-.09a7.42,7.42,0,0,1-1.07-.72c0-1.16-.92-.19-1.29-.49s-.77-.36-.82-1.2c0-.16-.22-.15-.37,0-.61.58-1.24,1.25-1.84,1.93a1.61,1.61,0,0,0-.51,1.47c.14,1.14.83,1.19,1,2.29,0,.17.2.17.34.07.32-.26.53-.26.64.17s.4.36.46.74c.15.82.47,1,1.07.47.22-.18.38,0,.45.29s.21.68.45.77l.9.32q-.57,1.66-1,3.36a2.42,2.42,0,0,1,0-.53c.09-1.23-.12-1.32-.67-.28-.07.12-.13.26-.2.38-.16.27-.24.21-.19-.22s.21-.94-.06-.87-.31.28-.42.26a15.29,15.29,0,0,1-1.87-.53c-.1,0-.13-.33-.15-.56,0-.49-.27-.24-.47,0s-.46.44-.56.18-.16-.76-.56-.2-.89,1-1.29,1.49a3.13,3.13,0,0,0-.16.43,1.2,1.2,0,0,0-.06.88c.28.46.56.95.83,1.43s.56.54.79,1l.2-.21c.28-.26.51-.26.65.14a1.21,1.21,0,0,0,.37.6,4.13,4.13,0,0,0,1,.36c.23.07.36.41.5.77a.72.72,0,0,0,.4.47,1.14,1.14,0,0,1,.63.31c-.17.81-.32,1.61-.46,2.42,0-.09-.09-.17-.13-.27-.29-.7-.66-.73-1.13,0-.21.31-.38.28-.53.17a1.23,1.23,0,0,1-.4-.57c-.09-.22-.16-.22-.31.13-.37.92-.38.91-.41.29,0-.43,0-.87-.09-1.25s-.19-.56-.4-.28l-.91,1.26c-1,.25-2,1.81-2.77,4a1.91,1.91,0,0,0,0,1.29,1.49,1.49,0,0,0,.25.55c.52.44,1.14,0,1.6.92A1,1,0,0,0,41.3,47c.13-.61.23-1.22.5-.65s.62.68,1,.53c.62-.27,1.22.52,1.86-.53,0-.06.11,0,.14.09.22.65.57.57.86.72q-.15,1.7-.21,3.39h0c-.27-.69-.52,0-.77.2s-.38.15-.5-.07A1.36,1.36,0,0,0,42.65,50c-.23,0-.47.1-.65-.34s-.37-.52-.6-.06a.41.41,0,0,1-.33.22c-.23.06-.42.24-.57.91-.1.46-.22.9-.34,1.33a1,1,0,0,0-.76.5c-.55,1.08-1,2.2-1.6,3.27s-.79,2.29-2.08,2.94c-.06,0,0,.2.07.31a1.2,1.2,0,0,1,.13.46,21.81,21.81,0,0,0-4.72-1.57,1.45,1.45,0,0,0-.32-.59c-.41-.45,0-.79.5-1,.25-.12.21-.29,0-.55a.66.66,0,0,1,.24-1.11c.23-.12.51-.25.57-.43a5.1,5.1,0,0,0,.59-3,3.84,3.84,0,0,0-1.89-2.53,2.65,2.65,0,0,0-1.08-.38,8.11,8.11,0,0,1-2,.17,10.88,10.88,0,0,0-2,.22c-.48.11-.68.32-.53.53.38.56,1,1.09-.08,1.69a4.85,4.85,0,0,1-.37,1.85,3.54,3.54,0,0,0-.58,1.85c0,.41.14.85-.08,1.23a3.14,3.14,0,0,0-.36,2A17.54,17.54,0,0,0,20.14,59L20,58.69l-1.93-4.2C17.85,54,17,53.92,16,54.27c-.14,0-.39,0-.38,0a1.15,1.15,0,0,1,.31-.39c.72-.64,1.16-1,1.25-1.19s-.14-.38-.67-.54a10.11,10.11,0,0,0-1.69-.34,4,4,0,0,0-1.82.72,4.44,4.44,0,0,0-1.52,1.8,7.66,7.66,0,0,0-.59,2.46,1.68,1.68,0,0,0,.93,1.62c.28.14.42.45.24.24.77,1.06,1.23,1.62,1.63,2.23.11.16-.06.64.1.66.53.11.62.65.93,1a19.42,19.42,0,0,0-2,2.09,3.31,3.31,0,0,1-.3-.68,1.55,1.55,0,0,0-2.14-1.1c-.65.22-.71-.32-.66-1s-.13-.95-.8-.81c-.41.11-.83.26-1.12.07C6.87,60.51,6,60,5.06,59.46c-.25-.14-.56.16-.8.66a4,4,0,0,1-1.09,1.62,5.23,5.23,0,0,0-1.53,2.45,3.82,3.82,0,0,0-.16,1.16c.75-.68.83.55,1.33.38s.75.16,1,.53c.17.22.74-.48.85.13.2,1,.78,1.23,1.56.86.62-.3,1.2-.4,1.37.46.14.61.6.63.92.92s.68.92,1.06,1.3l.16.12a14.66,14.66,0,0,0-.63,3.15,1.56,1.56,0,0,0-.84-.32,8,8,0,0,1-2.19-.24c-.88-.26-1.74.07-2.36,1.53-.18.42-.37.48-.53.17-.33-.62-.71-.9-1.25-.72a2.84,2.84,0,0,0-.54,0c-.9.06-1.62,1.61-1.38,4a10.28,10.28,0,0,0,.21,1.49c.3,1.53,1.62,3.08,2.21,3s1.54-.12,2-.85c.3-.44.53-.81,1.07-.34.22-.25.42-.76.66-.66a1.91,1.91,0,0,0,1.32.25c.6-.22,1.22-.39,1.83-.57l.57-.17a21.28,21.28,0,0,0,1,2.49.81.81,0,0,1-.72.16l-1,0c-.66,1.41-2,1.68-2.93,2.54a3,3,0,0,0-.45,1c-.33.81-1.21.88-1.29,2a7.84,7.84,0,0,0-1.06-.09c-.26,0-.32.33-.15.79.83,2.28,3.11,4.2,4.16,3.85a1.94,1.94,0,0,1,1.37-.14c.3.1.38-.06.37-.42a1.83,1.83,0,0,1,1.33-1.8,3.87,3.87,0,0,1,1.29-.31c.5,0,.29-.85.62-1.12a16.39,16.39,0,0,1,1.71-1.3c.69.89,1.41,1.74,2.16,2.57l.33.34L16,91a1.7,1.7,0,0,0-.63,1.15c0,.49-.45.37-.79.41a1.1,1.1,0,0,0-1,1.14c0,.51-.07,1-.46,1.26a2.46,2.46,0,0,0-.62.73c-.39.58.08,2,1,2.88s2.4,1.3,2.94.89a7.18,7.18,0,0,0,1-.86c.65-.73,1.26-1.47,1.89-2.21a8.86,8.86,0,0,0,.89-1l.84-1c.88.75,1.79,1.46,2.72,2.13a2.66,2.66,0,0,1-.75.29.54.54,0,0,0-.3.55c.06.55-.18.79-.71.94-.93.26-1.05.79-.52,1.71.69,1.2.74,1.62,0,1.9-.35.13-.77.15-1.13.26s-.21.79.1,1.06a29.08,29.08,0,0,1,2.42,2.27c1.07,1.12,2.56,1.32,2.94.55l1.19-2.32a30.09,30.09,0,0,1,1.77-3.12.43.43,0,0,1,.34-.14c.24,0,.37.2.42.49a3.67,3.67,0,0,1-.61,1.67,1.29,1.29,0,0,0-.4,1.21c.05.24.3.63.17.7-.67.36-.64.75.24,1.44.35.28.41.71.63,1.07a2.07,2.07,0,0,0,1.41.71c.73,0,1.59,0,1.76-.38.33-.72,1.11-1.18,1.65-1.77s.29-1.49,1.19-2c0,0-.25-.38-.46-.52s-.58-.34-.56-.59a3.31,3.31,0,0,1,0-.55c.88.26,1.77.5,2.68.68.61.13,1.23.22,1.86.31-.06.5-.12,1-.19,1.5,0,.19-.29.36-.46.53s-.24.13-.32.22c-.24.3.33.66.25.9-.13.39-.94.67-.66,1.11a7.44,7.44,0,0,1,.72,1.94,1.18,1.18,0,0,0,.76.51,23.26,23.26,0,0,0,3,.16,26,26,0,0,0-1.3,3.14l-.05,0c-.39,0-.8,0-1-.55a11.92,11.92,0,0,1-.45-1.47c-.1-.38-.11-.41-.76.36a2.2,2.2,0,0,1-.91.79,2.47,2.47,0,0,0-1.12.81,5,5,0,0,0-.8,1.69,8.74,8.74,0,0,1-.57,1.51c-.19.39-.25.63,0,.9s.58.45.66.86c.29,1.41,1.16,1.68,1.75,2.46s1.34.19,1.88,1.06q0,.65,0,1.29c-.49.08-.81.7-1.24,1s-.73,1-.63,2a1.39,1.39,0,0,1-.33,1.23c-.62.45-.59,1.6-.67,2.53a6.48,6.48,0,0,0,.59,3.1c.13.28.42.65.57.66,1.25.05,2.27-.86,3.55-.68.26.74.53,1.49.84,2.22-.34.64-1,.85-1.33,1.56,0,0-.22-.14-.33-.24s-.44-.56-.63-.63-.27.25-.42.39a4.58,4.58,0,0,1-.7.63.9.9,0,0,0-.33,1,13.94,13.94,0,0,1,.19,1.95,3.22,3.22,0,0,0,.24,1.43,4.33,4.33,0,0,0,1.11.91c.23.2.63.47.68.64.36,1.4.85,1.26,1.36,1,.73-.42,1.45-.85,2.15-1.32a1.85,1.85,0,0,1,1-.17c.52,0,.54-.06.27-.68-.12-.27-.25-.56-.15-.74.09.14.18.29.28.43a30.73,30.73,0,0,0,4.93,5.59,1.26,1.26,0,0,1-1.16.61c-.61,0-.93.54-.87,1.25a2,2,0,0,1-.25,1.38c-.46.59.08,1.46.61,2.33a2.12,2.12,0,0,0,.39.41,14,14,0,0,1,1.82,2c.25.31,1.21.62,1.39.47.68-.56.86-1.5,2.06-1.64-.33-.8.13-1,1-1,.62,0,1-.13.81-.78a.49.49,0,0,1,0-.35c.06-.14.11-.29.16-.44.78.43,1.56.83,2.36,1.2a.7.7,0,0,1,0,.38c-.1.64-.71,1.13-.27,2,.16.3.11.48-.19.57a2,2,0,0,0-1.2,1.16c-.28.53,0,1.14.57,1.79a6,6,0,0,0,2.69,1.41,4.16,4.16,0,0,0,2.73-.27c.55-.32.76-.83,1.89-.78a.81.81,0,0,0,.66-.4,5,5,0,0,1,1.4-2.3.83.83,0,0,0,.14-1.06c.6.08,1.2.13,1.8.16.07.13.14.25.22.37.28.4.64.81.89,1.19a.83.83,0,0,1-.23,1.23,2,2,0,0,0-.67,2.46c0,.1.16.21.28.3a5.11,5.11,0,0,0,2.38.65c.89.12,1.83.06,2.68.18a1.35,1.35,0,0,0,.53-.2,7.77,7.77,0,0,0,1-.61,10.56,10.56,0,0,0,.85-.75,9.77,9.77,0,0,0,1.27-1.54c.11-.17-.15-.4-.32-.55a9.31,9.31,0,0,1-.91-.67c-.18-.2.06-.53.31-.51a2.16,2.16,0,0,0,1.83-.71c1-.13.85.67,1.67.72.59,0-.05.66.14.86a7.55,7.55,0,0,0,1.78,1.24.83.83,0,0,0,.52-.05A15.68,15.68,0,0,0,85.52,157a9.68,9.68,0,0,0,1.87-1.61c.68-.7,1.08-1.67.64-2.1a5.05,5.05,0,0,1-1.46-3.39c0-.22-.25-.34-.34-.54s0-.26,0-.39a3.74,3.74,0,0,1,.38-.08,1.78,1.78,0,0,0,1.55-.3,5.31,5.31,0,0,1,1.26-.63c.41-.2.75-.24.79.3a1.15,1.15,0,0,0,.8,1.06,2.4,2.4,0,0,0,2-.79l.65-.83.56-.87a16.84,16.84,0,0,0,1-1.78,2.78,2.78,0,0,0,0-1.91c-.06-.27-.27-.29-.57-.17-.12.05-.34.11-.35.05-.15-.94-.87-1.09-1.27-1.67-.18-.26-.1-.39.24-.69.76-.65,1.44-1,1.78,0,.11.32.26.36.56.17a1.68,1.68,0,0,1,.73-.25,1.33,1.33,0,0,0,1-.84,32.22,32.22,0,0,0,1.25-3.66c.19-.71,0-1.5-.34-1.71s-.81-.37-1.2-.61a.89.89,0,0,1-.42-.61c0-1.34-.64-1.46-1.3-1.59l-1-.18c-.36-.06-.54-.45-.73-.78a.33.33,0,0,0-.25-.17c.18-1,.33-2,.47-3,.86,0,1.71.37,2.6-.3,0,0,.27.37.31.62s.1.69.32.77a5.32,5.32,0,0,0,2.89.6.91.91,0,0,0,.62-.43,11.46,11.46,0,0,0,1.35-5.9c0-.27-.24-.67-.4-.7-.79-.16-1.37-1-2.09-1.28-.47-.22-.84-1.13-1.46-.47-.64-.11-1.13-.76-1.8-.86-.52-.09-1-.66-1.52-.77l-.07,0q.08-1.34.12-2.67c.23.11.47.36.7.34s.61-.51.92-.52a20.34,20.34,0,0,1,2.32.19c.68.8,1.22.16,1.74-.51.21-.28.38-.34.57-.15a2.88,2.88,0,0,0,.57.5c.72.38,1.28-.16,1.47-1.27a11.39,11.39,0,0,1,.55-2.8,1.43,1.43,0,0,0-.13-.84c-.66-1.4-1.54-2.26-2.79-2.08-.45.06-.9,0-1.34,0-1,.15-1.68-.65-2.44-1.27-.15-.13-.09-.54.11-.79,1.17-1.42,2.69-1.52,4-2.28.06,0,.17.15.25.23l1.73,1.1c.22,0,.37-.22.36-.58a7.42,7.42,0,0,0-.17-.92,2.15,2.15,0,0,1-.08-.58c0-.06.13-.09.33-.12s.59-.14.69-.31a.62.62,0,0,0-.15-.64c0-.06-.1-.13-.16-.19s0,0-.05,0,0,0-.08,0l-.09-.09s-.14-.12-.21-.18a1.25,1.25,0,0,0-.24-.15c-.09,0-.16,0-.32,0s-.21,0-.27,0a8.13,8.13,0,0,0-2.84-1.28,4.48,4.48,0,0,1-1-.5,1.59,1.59,0,0,1-.27-.3c.14-.09.31-.3.41-.24.77.44,1.4-.14,2.21.67a.91.91,0,0,0,.56.12c1-.12,1.44-.39,1.07-1.42a2.35,2.35,0,0,0-.39-.63,27.39,27.39,0,0,0-2.66-2.85c-.33-.27-.68-.6-1-.9-.57-.55-1.14-1-1.71-1.56a2.46,2.46,0,0,1-.33-.43c0-.19,0-.43.07-.44h0c.69.59,1.3,1.17,2,1.76a10,10,0,0,0,1.14.86l.13.09c.84.72,1.46,1,2.26,1.77.17.15.24.13.28.12s.06-.08,0-.17l1.1.72a3.51,3.51,0,0,0,1,.5,13.67,13.67,0,0,1,1.63.21c.07-.22.15-.47.26-.75a8.8,8.8,0,0,1-.8-1c-.45-.9-.9-1.79-1.34-2.69l-1.14-2.33a23.71,23.71,0,0,0,5.26-2.51,11.63,11.63,0,0,0,1.17,1.94A29.3,29.3,0,0,0,112,94c.18.23.79.12,1.3-.16a12,12,0,0,0,2.74-2.1,1.58,1.58,0,0,0,.45-.85,6.3,6.3,0,0,1,.12-2c.14-.61.08-.59-.57-1a.67.67,0,0,1-.27-.16c-.34-.48-.18-1.41-1.09-1.38a1.81,1.81,0,0,0-.32-1.31l-.42-.43c.71-.67,1.4-1.36,2-2.09a3.54,3.54,0,0,0,1.79.64c.73.06,1.15.5,1.12,1.41,0,.66.42.73,1,.57a12.18,12.18,0,0,0,1.65-.59,2.89,2.89,0,0,0,1.16-1c.54-.77,1-1.59,1.53-2.38A31.86,31.86,0,0,1,126.39,78a2.82,2.82,0,0,0,.6-3.19,7.82,7.82,0,0,1-.56-.85c-.11-.29-.19-.45-.44-.33-.61.3-.93-.11-1.29-.57a3.42,3.42,0,0,0-2.21-1.29c.33-.88.63-1.78.88-2.69l0,0c.29-.2.61-.14.91-.29s.38-.12.53.07c.9,1.06,2.09,1.11,3.77,1.68.38.06,1.33.26,2.31.39.64.1,1.49-1,1.85-2.38a23.22,23.22,0,0,1,.91-2.88c.14-.42,0-1.54-.24-1.58a8,8,0,0,0-1.71-.38,2,2,0,0,1-1.59-1.07c-.22-.33-.54-.36-.78-.65s-.34-.36-.51-.15c-.65.83-1.28.62-1.89-.09a1.36,1.36,0,0,0-1.11-.44l-1.45,0V61c0-.45,0-.9-.08-1.35l0,0C124.53,59.51,124.79,59.46,124.92,59.61ZM46.48,103c.25,0,.49-.08.73-.13l-.33.34A.86.86,0,0,0,46.48,103ZM87.91,35.4c.5.06,1.07-.06,1.37.83a.41.41,0,0,0,.23.25,3.21,3.21,0,0,1,.2,1.29,1.09,1.09,0,0,0-.39-.15c-.91-.17-1.82-.4-2.73-.62l.21-1.15A2.43,2.43,0,0,1,87.91,35.4ZM40.4,61a.37.37,0,0,0,.11.18c.34.23.68.22,1,.7.17.23.32,0,.44-.27s.36-.48.58-.5l1.8-.18a7.46,7.46,0,0,0,1.34-.19c0,.46.09.93.14,1.4a1.27,1.27,0,0,0-.2.31c0,.07,0,.16-.08.24a.11.11,0,0,1-.08,0c-.3-.08-.34,1.32-.82.4-.29.95-.87.62-1.22,1.25-.13.24-.25.27-.4.18a26.34,26.34,0,0,0-2.82-2.45,3.59,3.59,0,0,0,.17-.34A1.13,1.13,0,0,1,40.4,61ZM92,140.29c.06,0,0,.23.07.35s-.28.18-.36.15l-1.12-.42.3-.72C91.3,139.85,91.68,140.06,92,140.29Z"/></g></g></svg>