<svg id="Layer_1" data-name="Layer 1" xmlns="http://www.w3.org/2000/svg" xmlns:xlink="http://www.w3.org/1999/xlink" viewBox="0 0 1000 2000"><defs><style>.cls-1,.cls-17{fill:none;}.cls-2,.cls-6{fill:#7002ff;stroke:#7002ff;}.cls-14,.cls-15,.cls-17,.cls-18,.cls-19,.cls-2,.cls-21,.cls-22,.cls-23,.cls-5{stroke-linecap:round;stroke-linejoin:round;}.cls-2{stroke-width:2.63px;}.cls-3{fill:#ab03ff;}.cls-4{fill:#00d0ff;}.cls-16,.cls-5{fill:#8b3e00;}.cls-5{stroke:#8b3e00;}.cls-14,.cls-15,.cls-17,.cls-18,.cls-19,.cls-21,.cls-5{stroke-width:1.84px;}.cls-6,.cls-9{stroke-miterlimit:10;stroke-width:0.58px;}.cls-7{fill:#ff890a;}.cls-8{fill:#708901;}.cls-9{fill:#b400d4;stroke:#b400d4;}.cls-10{fill:#8400f0;}.cls-11{fill:url(#New_Pattern_6);}.cls-12{fill:#ff8908;}.cls-13{fill:url(#New_Pattern_5);}.cls-14,.cls-17,.cls-22,.cls-23{stroke:#000;}.cls-15{fill:#5b2602;stroke:#5b2602;}.cls-18{fill:#8f0034;stroke:#8f0034;}.cls-19,.cls-20{fill:#fff;}.cls-19{stroke:#fff;}.cls-21{fill:#631503;stroke:#631503;}.cls-22{stroke-width:1.52px;}.cls-23{stroke-width:1.56px;}</style><pattern id="New_Pattern_6" data-name="New Pattern 6" width="572.6" height="708.66" patternTransform="translate(331.66 2494.41) scale(0.23)" patternUnits="userSpaceOnUse" viewBox="0 0 572.6 708.66"><rect class="cls-1" width="572.6" height="708.66"/><polygon class="cls-3" points="531.45 697.15 769.16 960.9 745.14 982.55 494.12 704.03 494.12 729.04 732.22 993.23 708.2 1014.88 494.12 777.35 494.12 803.78 692.15 1023.5 668.12 1045.14 494.12 852.08 494.12 879.77 648.54 1051.11 780.24 1051.11 780.24 943.61 558.11 697.15 531.45 697.15"/><polygon class="cls-4" points="769.16 960.9 531.45 697.15 494.12 697.15 494.12 704.03 745.14 982.55 769.16 960.9"/><polygon class="cls-4" points="558.11 697.15 780.24 943.61 780.24 895.3 601.65 697.15 558.11 697.15"/><polygon class="cls-3" points="207.65 697.15 164.81 697.15 207.65 744.68 207.65 697.15"/><polygon class="cls-3" points="29.05 697.15 207.65 895.3 207.65 868.87 52.87 697.15 29.05 697.15"/><polygon class="cls-3" points="-41.15 697.15 196.56 960.9 172.54 982.55 -78.48 704.03 -78.48 729.04 159.62 993.23 135.6 1014.88 -78.48 777.35 -78.48 803.78 119.55 1023.5 95.53 1045.14 -78.48 852.08 -78.48 879.77 75.94 1051.11 207.65 1051.11 207.65 943.61 -14.48 697.15 -41.15 697.15"/><polygon class="cls-3" points="121.27 697.15 96.41 697.15 207.65 820.57 207.65 792.98 121.27 697.15"/><polygon class="cls-4" points="196.56 960.9 -41.15 697.15 -78.48 697.15 -78.48 704.03 172.54 982.55 196.56 960.9"/><polygon class="cls-4" points="-14.48 697.15 207.65 943.61 207.65 895.3 29.05 697.15 -14.48 697.15"/><polygon class="cls-4" points="52.87 697.15 207.65 868.87 207.65 820.57 96.41 697.15 52.87 697.15"/><polygon class="cls-4" points="207.65 744.68 164.81 697.15 121.27 697.15 207.65 792.98 207.65 744.68"/><polygon class="cls-3" points="207.65 696.89 250.49 696.89 207.65 744.42 207.65 696.89"/><polygon class="cls-3" points="386.24 696.89 207.65 895.05 207.65 868.62 362.42 696.89 386.24 696.89"/><polygon class="cls-3" points="456.44 696.89 218.73 960.65 242.75 982.3 493.77 703.78 493.77 728.79 255.67 992.97 279.69 1014.62 493.77 777.09 493.77 803.52 295.74 1023.24 319.76 1044.89 493.77 851.83 493.77 879.52 339.35 1050.86 207.65 1050.86 207.65 943.35 429.77 696.89 456.44 696.89"/><polygon class="cls-3" points="294.02 696.89 318.88 696.89 207.65 820.32 207.65 792.73 294.02 696.89"/><polygon class="cls-4" points="218.73 960.65 456.44 696.89 493.77 696.89 493.77 703.78 242.75 982.3 218.73 960.65"/><polygon class="cls-4" points="429.77 696.89 207.65 943.35 207.65 895.05 386.24 696.89 429.77 696.89"/><polygon class="cls-4" points="362.42 696.89 207.65 868.62 207.65 820.32 318.88 696.89 362.42 696.89"/><polygon class="cls-4" points="207.65 744.42 250.49 696.89 294.02 696.89 207.65 792.73 207.65 744.42"/><polygon class="cls-3" points="494.12 438.52 580.71 342.45 605.01 342.45 494.12 465.49 494.12 438.52"/><polygon class="cls-3" points="531.45 696.41 769.16 432.66 745.14 411.01 494.12 689.53 494.12 664.52 732.22 400.34 708.2 378.69 494.12 616.21 494.12 589.78 692.15 370.07 668.12 348.42 494.12 541.48 494.12 513.79 648.54 342.45 780.24 342.45 780.24 449.95 558.11 696.41 531.45 696.41"/><polygon class="cls-3" points="494.12 342.45 537.17 342.45 494.12 390.22 494.12 342.45"/><polygon class="cls-4" points="494.12 465.49 605.01 342.45 648.54 342.45 494.12 513.79 494.12 465.49"/><polygon class="cls-4" points="692.15 370.07 494.12 589.78 494.12 541.48 668.12 348.42 692.15 370.07"/><polygon class="cls-4" points="732.22 400.34 494.12 664.52 494.12 616.21 708.2 378.69 732.22 400.34"/><polygon class="cls-4" points="769.16 432.66 531.45 696.41 494.12 696.41 494.12 689.53 745.14 411.01 769.16 432.66"/><polygon class="cls-4" points="558.11 696.41 780.24 449.95 780.24 498.26 601.65 696.41 558.11 696.41"/><polygon class="cls-4" points="494.12 390.22 537.17 342.45 580.71 342.45 494.12 438.52 494.12 390.22"/><polygon class="cls-3" points="494.12 246.38 580.71 342.45 605.01 342.45 494.12 219.41 494.12 246.38"/><polygon class="cls-3" points="531.45 -11.52 769.16 252.24 745.14 273.89 494.12 -4.63 494.12 20.38 732.22 284.56 708.2 306.21 494.12 68.69 494.12 95.12 692.15 314.83 668.12 336.48 494.12 143.42 494.12 171.11 648.54 342.45 780.24 342.45 780.24 234.94 558.11 -11.52 531.45 -11.52"/><polygon class="cls-3" points="494.12 342.45 537.17 342.45 494.12 294.68 494.12 342.45"/><polygon class="cls-4" points="494.12 219.41 605.01 342.45 648.54 342.45 494.12 171.11 494.12 219.41"/><polygon class="cls-4" points="692.15 314.83 494.12 95.12 494.12 143.42 668.12 336.48 692.15 314.83"/><polygon class="cls-4" points="732.22 284.56 494.12 20.38 494.12 68.69 708.2 306.21 732.22 284.56"/><polygon class="cls-4" points="769.16 252.24 531.45 -11.52 494.12 -11.52 494.12 -4.63 745.14 273.89 769.16 252.24"/><polygon class="cls-4" points="558.11 -11.52 780.24 234.94 780.24 186.64 601.65 -11.52 558.11 -11.52"/><polygon class="cls-4" points="494.12 294.68 537.17 342.45 580.71 342.45 494.12 246.38 494.12 294.68"/><polygon class="cls-3" points="-78.48 438.52 8.11 342.45 32.41 342.45 -78.48 465.49 -78.48 438.52"/><polygon class="cls-3" points="207.65 696.41 164.81 696.41 207.65 648.88 207.65 696.41"/><polygon class="cls-3" points="29.05 696.41 207.65 498.26 207.65 524.69 52.87 696.41 29.05 696.41"/><polygon class="cls-3" points="-41.15 696.41 196.56 432.66 172.54 411.01 -78.48 689.53 -78.48 664.52 159.62 400.34 135.6 378.69 -78.48 616.21 -78.48 589.78 119.55 370.07 95.53 348.42 -78.48 541.48 -78.48 513.79 75.94 342.45 207.65 342.45 207.65 449.95 -14.48 696.41 -41.15 696.41"/><polygon class="cls-3" points="121.27 696.41 96.41 696.41 207.65 572.99 207.65 600.58 121.27 696.41"/><polygon class="cls-3" points="-78.48 342.45 -35.42 342.45 -78.48 390.22 -78.48 342.45"/><polygon class="cls-4" points="-78.48 465.49 32.41 342.45 75.94 342.45 -78.48 513.79 -78.48 465.49"/><polygon class="cls-4" points="119.55 370.07 -78.48 589.78 -78.48 541.48 95.53 348.42 119.55 370.07"/><polygon class="cls-4" points="159.62 400.34 -78.48 664.52 -78.48 616.21 135.6 378.69 159.62 400.34"/><polygon class="cls-4" points="196.56 432.66 -41.15 696.41 -78.48 696.41 -78.48 689.53 172.54 411.01 196.56 432.66"/><polygon class="cls-4" points="-14.48 696.41 207.65 449.95 207.65 498.26 29.05 696.41 -14.48 696.41"/><polygon class="cls-4" points="52.87 696.41 207.65 524.69 207.65 572.99 96.41 696.41 52.87 696.41"/><polygon class="cls-4" points="207.65 648.88 164.81 696.41 121.27 696.41 207.65 600.58 207.65 648.88"/><polygon class="cls-4" points="-78.48 390.22 -35.42 342.45 8.11 342.45 -78.48 438.52 -78.48 390.22"/><polygon class="cls-3" points="493.77 438.78 407.18 342.7 382.88 342.7 493.77 465.74 493.77 438.78"/><polygon class="cls-3" points="207.65 696.67 250.49 696.67 207.65 649.14 207.65 696.67"/><polygon class="cls-3" points="386.24 696.67 207.65 498.51 207.65 524.94 362.42 696.67 386.24 696.67"/><polygon class="cls-3" points="456.44 696.67 218.73 432.91 242.75 411.26 493.77 689.78 493.77 664.77 255.67 400.59 279.69 378.94 493.77 616.47 493.77 590.04 295.74 370.32 319.76 348.67 493.77 541.74 493.77 514.04 339.35 342.7 207.65 342.7 207.65 450.21 429.77 696.67 456.44 696.67"/><polygon class="cls-3" points="294.02 696.67 318.88 696.67 207.65 573.25 207.65 600.84 294.02 696.67"/><polygon class="cls-3" points="493.77 342.7 450.71 342.7 493.77 390.48 493.77 342.7"/><polygon class="cls-4" points="493.77 465.74 382.88 342.7 339.35 342.7 493.77 514.04 493.77 465.74"/><polygon class="cls-4" points="295.74 370.32 493.77 590.04 493.77 541.74 319.76 348.67 295.74 370.32"/><polygon class="cls-4" points="255.67 400.59 493.77 664.77 493.77 616.47 279.69 378.94 255.67 400.59"/><polygon class="cls-4" points="218.73 432.91 456.44 696.67 493.77 696.67 493.77 689.78 242.75 411.26 218.73 432.91"/><polygon class="cls-4" points="429.77 696.67 207.65 450.21 207.65 498.51 386.24 696.67 429.77 696.67"/><polygon class="cls-4" points="362.42 696.67 207.65 524.94 207.65 573.25 318.88 696.67 362.42 696.67"/><polygon class="cls-4" points="207.65 649.14 250.49 696.67 294.02 696.67 207.65 600.84 207.65 649.14"/><polygon class="cls-4" points="493.77 390.48 450.71 342.7 407.18 342.7 493.77 438.78 493.77 390.48"/><polygon class="cls-3" points="-78.48 246.38 8.11 342.45 32.41 342.45 -78.48 219.41 -78.48 246.38"/><polygon class="cls-3" points="207.65 -11.52 164.81 -11.52 207.65 36.02 207.65 -11.52"/><polygon class="cls-3" points="29.05 -11.52 207.65 186.64 207.65 160.21 52.87 -11.52 29.05 -11.52"/><polygon class="cls-3" points="-41.15 -11.52 196.56 252.24 172.54 273.89 -78.48 -4.63 -78.48 20.38 159.62 284.56 135.6 306.21 -78.48 68.69 -78.48 95.12 119.55 314.83 95.53 336.48 -78.48 143.42 -78.48 171.11 75.94 342.45 207.65 342.45 207.65 234.94 -14.48 -11.52 -41.15 -11.52"/><polygon class="cls-3" points="121.27 -11.52 96.41 -11.52 207.65 111.91 207.65 84.32 121.27 -11.52"/><polygon class="cls-3" points="-78.48 342.45 -35.42 342.45 -78.48 294.68 -78.48 342.45"/><polygon class="cls-4" points="-78.48 219.41 32.41 342.45 75.94 342.45 -78.48 171.11 -78.48 219.41"/><polygon class="cls-4" points="119.55 314.83 -78.48 95.12 -78.48 143.42 95.53 336.48 119.55 314.83"/><polygon class="cls-4" points="159.62 284.56 -78.48 20.38 -78.48 68.69 135.6 306.21 159.62 284.56"/><polygon class="cls-4" points="196.56 252.24 -41.15 -11.52 -78.48 -11.52 -78.48 -4.63 172.54 273.89 196.56 252.24"/><polygon class="cls-4" points="-14.48 -11.52 207.65 234.94 207.65 186.64 29.05 -11.52 -14.48 -11.52"/><polygon class="cls-4" points="52.87 -11.52 207.65 160.21 207.65 111.91 96.41 -11.52 52.87 -11.52"/><polygon class="cls-4" points="207.65 36.02 164.81 -11.52 121.27 -11.52 207.65 84.32 207.65 36.02"/><polygon class="cls-4" points="-78.48 294.68 -35.42 342.45 8.11 342.45 -78.48 246.38 -78.48 294.68"/><polygon class="cls-3" points="493.77 246.12 407.18 342.19 382.88 342.19 493.77 219.16 493.77 246.12"/><polygon class="cls-3" points="207.65 -11.77 250.49 -11.77 207.65 35.76 207.65 -11.77"/><polygon class="cls-3" points="386.24 -11.77 207.65 186.39 207.65 159.96 362.42 -11.77 386.24 -11.77"/><polygon class="cls-3" points="456.44 -11.77 218.73 251.99 242.75 273.64 493.77 -4.88 493.77 20.13 255.67 284.31 279.69 305.96 493.77 68.43 493.77 94.86 295.74 314.58 319.76 336.23 493.77 143.16 493.77 170.86 339.35 342.19 207.65 342.19 207.65 234.69 429.77 -11.77 456.44 -11.77"/><polygon class="cls-3" points="294.02 -11.77 318.88 -11.77 207.65 111.65 207.65 84.06 294.02 -11.77"/><polygon class="cls-3" points="493.77 342.19 450.71 342.19 493.77 294.42 493.77 342.19"/><polygon class="cls-4" points="493.77 219.16 382.88 342.19 339.35 342.19 493.77 170.86 493.77 219.16"/><polygon class="cls-4" points="295.74 314.58 493.77 94.86 493.77 143.16 319.76 336.23 295.74 314.58"/><polygon class="cls-4" points="255.67 284.31 493.77 20.13 493.77 68.43 279.69 305.96 255.67 284.31"/><polygon class="cls-4" points="218.73 251.99 456.44 -11.77 493.77 -11.77 493.77 -4.88 242.75 273.64 218.73 251.99"/><polygon class="cls-4" points="429.77 -11.77 207.65 234.69 207.65 186.39 386.24 -11.77 429.77 -11.77"/><polygon class="cls-4" points="362.42 -11.77 207.65 159.96 207.65 111.65 318.88 -11.77 362.42 -11.77"/><polygon class="cls-4" points="207.65 35.76 250.49 -11.77 294.02 -11.77 207.65 84.06 207.65 35.76"/><polygon class="cls-4" points="493.77 294.42 450.71 342.19 407.18 342.19 493.77 246.12 493.77 294.42"/><circle class="cls-3" cx="219.85" cy="342.45" r="157.31"/><circle class="cls-3" cx="493.77" cy="696.67" r="157.31"/><circle class="cls-3" cx="-78.83" cy="696.67" r="157.31"/><circle class="cls-3" cx="493.77" cy="-11.99" r="157.31"/><circle class="cls-3" cx="-78.83" cy="-11.99" r="157.31"/></pattern><pattern id="New_Pattern_5" data-name="New Pattern 5" width="133.5" height="75" patternTransform="translate(69.28 1093.14) scale(1.64)" patternUnits="userSpaceOnUse" viewBox="0 0 133.5 75"><rect class="cls-1" width="133.5" height="75"/><polygon class="cls-2" points="158.24 54.13 140.14 73.92 133.35 49.55 158.24 54.13"/><polygon class="cls-2" points="24.73 54.13 6.64 73.92 -0.15 49.55 24.73 54.13"/><polygon class="cls-2" points="107.56 9.65 134.29 7.54 122.61 29.98 107.56 9.65"/><polygon class="cls-2" points="158.24 -20.87 140.14 -1.08 133.35 -25.45 158.24 -20.87"/><polygon class="cls-2" points="40.81 47.15 67.55 45.04 55.86 67.48 40.81 47.15"/><polygon class="cls-2" points="91.48 16.63 73.39 36.42 66.6 12.05 91.48 16.63"/><polygon class="cls-2" points="105.31 42.8 105.94 69.61 84.18 56.71 105.31 42.8"/><polygon class="cls-2" points="-25.94 9.65 0.8 7.54 -10.89 29.98 -25.94 9.65"/><polygon class="cls-2" points="24.73 -20.87 6.64 -1.08 -0.15 -25.45 24.73 -20.87"/><polygon class="cls-2" points="38.56 5.3 39.2 32.11 17.43 19.21 38.56 5.3"/></pattern></defs><path class="cls-5" d="M652.37,1721.8c-2.06,7.4-5.3,16.16-12.85,17.63-4.88,1-9.69-1.71-13.81-4.5a130.5,130.5,0,0,1-46.2-55.72c-1.27-2.91-2.44-6-2.4-9.14,0-3,1.15-5.83,2.24-8.59,10.34-26.23,23.18-53,31.73-80,26.43,18.21,50.35,35.94,72.93,55.75A551.4,551.4,0,0,0,652.37,1721.8Z"/><path class="cls-6" d="M629.76,1809.37l9.78-35.25c2.64-9.47,5.3-19,9.91-27.72,3.56-6.7,8.26-12.87,10.65-20.08s1.86-16.14-3.87-21.13c-2-1.76-12.79,19.51-15.45,20.18a5.39,5.39,0,0,1-1.88.1C628.33,1758,616,1790.92,622,1826a19.8,19.8,0,0,0,6.67,12.19,36.37,36.37,0,0,1-1.94-8.1C626,1823.1,627.88,1816.14,629.76,1809.37Z"/><path class="cls-7" d="M586,1777c-7.55-45.3-15.11-90.6-37.79-130q-7.15,2-14.25,4.23a104.54,104.54,0,0,1-13,3.47c3.07,71.1,33.44,135.1,72.25,196.85a58.06,58.06,0,0,0,17,17.12A339,339,0,0,1,593,1799C591,1791,588,1785,586,1777Z"/><path class="cls-8" d="M634.92,1853.77c-1.8-5.28-4.42-10.33-6.24-15.58A19.8,19.8,0,0,1,622,1826c-6-35.08,6.32-68,16.89-100.53-6.88-.61-21.36-9.7-26.37-12.18-10.36-5.13-20.43-15-18.58-26.45l0-.12c-9.56-14-18.91-29-25.7-45q-10.08,2.44-20.06,5.27c22.68,39.42,30.24,84.72,37.79,130,2,8,5,14,7,22a339,339,0,0,0,17.25,69.65c7.33,4.95,15.55,8.59,23.87,11.76,0-1.47-.85-3-2.29-3.08C638,1871.62,637.62,1861.71,634.92,1853.77Z"/><path class="cls-4" d="M602.08,1665.07c.21-4.19-1.39-8.22-3-12.1l-5.58-13.77a2.74,2.74,0,0,0-3.77-2.21q-10.78,2.13-21.49,4.72c6.79,16,16.14,31,25.7,45C595.28,1679.07,601.69,1672.81,602.08,1665.07Z"/><path class="cls-9" d="M496.39,1654.84c3.86-2.74,9.11-.73,13.78.06a31.84,31.84,0,0,0,10.84-.22c3.07,71.1,33.44,135.1,72.25,196.85a57.18,57.18,0,0,0,39.47,25.78c1.65.27,1.91,2.7,1,4.1-5.71,8.64-24.7,17-33,8.38-25.38-26.39-45.15-55.85-60.89-88.71-8.72-18.21-17.44-36.44-24.75-55.26A396.63,396.63,0,0,1,499.43,1696c-2-8.16-3.73-16.37-4.92-24.66C493.79,1666.29,491.25,1658.5,496.39,1654.84Z"/><path class="cls-5" d="M430.72,1717.06q.87,15.89,2.24,31.75c2.38,27.11,6.3,55,20.14,78.41a540.92,540.92,0,0,1-80.22,37.51,1324.52,1324.52,0,0,0-28.76-139.16C373.66,1728.73,402.42,1725.26,430.72,1717.06Z"/><path class="cls-10" d="M293.91,1510.17c6.67-30.06,14.58-60.1,16.74-90.39,2-28.5-5-56.78-11.94-84.48-33-131.37-90.56-262.22-39.71-396.29,29.45-77.67,81.32-144.68,136-207.21l234.41,94.69a450.45,450.45,0,0,1-1.35,153.91c-.92,5.06-1.94,10.26-.94,15.32.88,4.39,3.22,8.34,5.53,12.18,61.05,101.53,137,193.72,193.71,297.33,28.91,52.83,8.89,104.8,1.8,161.13a1341.73,1341.73,0,0,0-10.19,197A486,486,0,0,1,599,1601.25s39.34-121.42,41.69-128.59c11.48-35,28.3-64.08,49.16-94.09a7.49,7.49,0,0,0,1.56-3.28c.2-1.61-.64-3.15-1.48-4.53-11.23-18.49-29.59-34.09-46.14-47.78-15.49-12.82-32.86-23.15-49.31-34.72C546.24,1254.3,506.38,1210,467,1166c-2,29.13-2.51,62.13-4.56,91.26-1.38,19.64-2.75,39.28-5.18,58.81-5.35,43.17-15.79,85.59-21.25,128.75-5.25,41.49-5.87,83.41-6.48,125.23-.72,49-1.43,98,1.22,146.91,1.81,33.23-136,31.07-156.29,32.16C277.38,1672,277.21,1585.4,293.91,1510.17Z"/><path class="cls-11" d="M293.91,1510.17c6.67-30.06,14.58-60.1,16.74-90.39,2-28.5-5-56.78-11.94-84.48-33-131.37-90.56-262.22-39.71-396.29,29.45-77.67,81.32-144.68,136-207.21l234.41,94.69a450.45,450.45,0,0,1-1.35,153.91c-.92,5.06-1.94,10.26-.94,15.32.88,4.39,3.22,8.34,5.53,12.18,61.05,101.53,137,193.72,193.71,297.33,28.91,52.83,8.89,104.8,1.8,161.13a1341.73,1341.73,0,0,0-10.19,197A486,486,0,0,1,599,1601.25s39.34-121.42,41.69-128.59c11.48-35,28.3-64.08,49.16-94.09a7.49,7.49,0,0,0,1.56-3.28c.2-1.61-.64-3.15-1.48-4.53-11.23-18.49-29.59-34.09-46.14-47.78-15.49-12.82-32.86-23.15-49.31-34.72C546.24,1254.3,506.38,1210,467,1166c-2,29.13-2.51,62.13-4.56,91.26-1.38,19.64-2.75,39.28-5.18,58.81-5.35,43.17-15.79,85.59-21.25,128.75-5.25,41.49-5.87,83.41-6.48,125.23-.72,49-1.43,98,1.22,146.91,1.81,33.23-136,31.07-156.29,32.16C277.38,1672,277.21,1585.4,293.91,1510.17Z"/><path class="cls-6" d="M508,1920c15.07,5.43,34.85,2.12,49.3-7.71-2.15-1.48-4.47-3-7-4.62-12-7.78-24.51-15.79-35.12-24.93a393.86,393.86,0,0,1-39.89-39.64c-5.88-6.74-11.61-13.8-15.15-22-1.48-3.42-2.67-7.16-5.47-9.6-6.11-5.33-15.53-1.58-22.62,2.34-8.73,4.82-18.66,11.64-18.35,21.61a13,13,0,0,0-2.32-.87C432.63,1873.86,464.83,1906.22,508,1920Z"/><path class="cls-4" d="M377,1845.22a11.09,11.09,0,0,1-2-4.29l-3.69-13.18c-.74-2.65-1.54-5.42-3.44-7.41s-5.26-2.89-7.44-1.21c-1.47,1.13-2,3.07-2.49,4.87q-2.66,10.27-5.13,20.59C360.62,1848.47,369.17,1848.19,377,1845.22Z"/><path class="cls-7" d="M363,1885c-6-2.71-12.23-3.65-18.46-4-2.25,11.46-3.7,23.1-1.86,34.57l-.36.3c22.83,10.35,47.16,16.92,72.12,23.48,33.18,8.61,65.13,18.44,99.54,17.21a120.21,120.21,0,0,0,16.52-2A116.55,116.55,0,0,1,503,1945C457,1922,410,1905,363,1885Z"/><path class="cls-8" d="M557.31,1912.29c-14.45,9.83-34.23,13.14-49.3,7.71-43.18-13.78-75.38-46.14-96.62-85.43-4.51-1.24-9.59-.12-13.89,2-5.05,2.44-9.42,6.07-14.3,8.84a6.26,6.26,0,0,1-4.09,1.13,3.76,3.76,0,0,1-2.13-1.28c-7.81,3-16.36,3.25-24.2-.63q-3.31,13.73-6.35,27.51c-.65,3-1.29,6-1.88,9,6.23.3,12.49,1.24,18.46,4,47,20,94,37,140,60a116.55,116.55,0,0,0,27.5,9.58c16.11-3.16,31.56-9.91,43.42-21.6C570.54,1922.8,565.13,1917.69,557.31,1912.29Z"/><path class="cls-9" d="M342.33,1915.92c22.83,10.35,47.16,16.92,72.12,23.48,33.18,8.61,65.13,18.44,99.54,17.21,21.75-1.18,44.06-8,59.94-23.63.17.52.34,1,.5,1.58,7-.56,12.52,7.17,11.91,14.17s-5.55,12.86-11,17.29c-17.15,13.92-40.48,17.88-62.55,17-19.6-.76-38.9-4.88-57.94-9.54a1003.8,1003.8,0,0,1-113.52-35c-1.63-.61-3.38-1.32-4.24-2.83s-.65-3.08-.49-4.67C337.19,1925.51,338.12,1919.41,342.33,1915.92Z"/><path class="cls-5" d="M494.22,41.4c-2.53,3.45-4.32,7.51-7.44,10.44C465,72.3,440.69,87.62,415.25,102.93l-9.64-3.11c-4.78-1.54-10-3.42-12.48-7.78-1.85-3.24-1.85-7.35-4-10.42-1.63-2.37-4.27-3.79-6.6-5.47s-4.72-3.93-4.21-6.9c.47-2.7,3.25-5.33,6-5.17-2.12-3.15-1.59-6.21.68-9a34.52,34.52,0,0,1,10.46-8.61c-.32-3.42,2.26-6.61,5.41-8s6.74-1.26,10.15-.84c-4-1.42-5-7.18-2.51-10.57s7.22-4.48,11.35-3.71,7.8,3.06,11.33,5.35c-3.78-3.1-2.21-10.36,2.5-11.63a13,13,0,0,1,5.59.14A185.4,185.4,0,0,1,497.5,38,18.47,18.47,0,0,0,494.22,41.4Z"/><path class="cls-5" d="M508.41,45c0-.13.07-.26.1-.38l.21.13Z"/><path class="cls-5" d="M527.2,122.92c5.7,1.32,12.34,8.16,11.5,14.55-1.08,8.25-7.47,4-13.6,3.77-7.31-.23-17.62,4.6-24,7.8-18.82,9.39-40,2.61-59.72,7.08-15.78,3.58-29.31,12.2-42.52,21.13-8.86-18.12-16.31-36.26-23.5-54.57a130.82,130.82,0,0,0,14.05-5.33,184,184,0,0,0,18.68-10.11l7.19-4.31,14.53,4.68c4.6,1.48,9.26,3,14.09,3.25,6.13.35,12.18-1.28,18.24-2.3A92.59,92.59,0,0,1,514.28,115a77.47,77.47,0,0,1-7.47,11.18C513.37,123.79,520.4,121.34,527.2,122.92Z"/><path class="cls-9" d="M393.5,180.87l5.33-3.62c-8.86-18.12-16.31-36.26-23.5-54.57-7.6,2.44-15.39,4.36-23.14,6.26l-35,8.6c14.28,20.05,27.57,40.75,43.83,59.11C372.08,191.61,383.37,187.74,393.5,180.87Z"/><path class="cls-8" d="M531.75,61.28Q528,74.63,524.27,88c-2,7.12-4,14.26-7,21q-1.37,3.09-3,6l.74.31c17.64,7.92,33.9,18,49.43,29.31,8.27-17.71,15.61-35.68,20.17-54.47C566.26,81.94,548.46,72.68,531.75,61.28Z"/><path class="cls-8" d="M394.4,467.5c1.39,1.39,3.47,2.08,4.16,3.47,11.09,24.27,38.13,32.59,61,40.91,3.47,1.38,8.32,1.38,12.48,2.08,9,1.38,18.72,2.08,27.74,0,10.4-2.78,20.8-1.39,31.2-5.55,4.16-1.39,9-4.16,13.86-6.24,21.5-9,41.6-25.65,49.92-47.15,4.16-9.7,4.86-22.18,6.94-33.28,2.47-15.81.71-31.28-2-46.64-2.15,3.4-4.31,6.79-6.45,10.2-9.21,14.59-17,37.62-29.45,49.08-3.72,3.41-8.8,5.69-13.77,5-10.76,12.13-26.51,20.65-40.95,26.52-17.82,7.37-37.49,6.14-54.69.61-13.95-4.48-29.71-15.21-34.53-29.28-1.14-3.31-3.22-6.81-6.66-7.49a9.56,9.56,0,0,0-4.94.64,25.51,25.51,0,0,0-15.32,15.15c1.43-3.93-4.3-9.65-11.12-14.93a78.77,78.77,0,0,0,6.34,20.3C390.24,456.41,390.24,462.65,394.4,467.5Z"/><path class="cls-12" d="M520.59,638.75C511.79,593,506.06,550.33,500,507.19c-76.46,9.7-117.31-71.43-118.22-76.63-7.2-5.58-15.6-10.68-18.05-12.7-12.67-10.44-26.19-20-37.34-32.12-19.73-21.51-30.48-49.48-44.38-75.15A326.77,326.77,0,0,0,250,262.22q50.13-32.75,102.75-61.46c2.74-1.49,5.51-2.83,8.3-4.11-16.26-18.36-29.55-39.06-43.83-59.11l-4.16,1c-35.47,8.72-66,19-98.21,36.61-14.58,8-38,15.16-49.81,26.19-12.54,11.72-9.74,36-7.42,51A569,569,0,0,0,236,464.14c6.48,10.46,13.3,20.71,20,31,33.83,52.3,60.88,110.69,87.78,167.13,8.91,18.69,14.67,36.16,15.46,56.86.52,13.61-8.57,35.86-4.8,47.38,1.64,5,6.29,8.29,10.68,11.18,51,33.49,120.46,70.55,188.59,86.28-2.29-12.09-4.16-24.29-5.34-36.67C541.39,762.86,533.07,703.23,520.59,638.75Z"/><path class="cls-13" d="M520.59,638.75C511.79,593,506.06,550.33,500,507.19c-76.46,9.7-117.31-71.43-118.22-76.63-7.2-5.58-15.6-10.68-18.05-12.7-12.67-10.44-26.19-20-37.34-32.12-19.73-21.51-30.48-49.48-44.38-75.15A326.77,326.77,0,0,0,250,262.22q50.13-32.75,102.75-61.46c2.74-1.49,5.51-2.83,8.3-4.11-16.26-18.36-29.55-39.06-43.83-59.11l-4.16,1c-35.47,8.72-66,19-98.21,36.61-14.58,8-38,15.16-49.81,26.19-12.54,11.72-9.74,36-7.42,51A569,569,0,0,0,236,464.14c6.48,10.46,13.3,20.71,20,31,33.83,52.3,60.88,110.69,87.78,167.13,8.91,18.69,14.67,36.16,15.46,56.86.52,13.61-8.57,35.86-4.8,47.38,1.64,5,6.29,8.29,10.68,11.18,51,33.49,120.46,70.55,188.59,86.28-2.29-12.09-4.16-24.29-5.34-36.67C541.39,762.86,533.07,703.23,520.59,638.75Z"/><path class="cls-7" d="M738,370.22a589.43,589.43,0,0,0,19.68-70.69A462.08,462.08,0,0,0,767,193.36c-.14-5-.39-10.1-2.52-14.6-2.61-5.52-7.71-9.4-12.77-12.82-13.86-9.38-28.84-17-43.8-24.48-1-.51-2-1-3-1.49C690.3,222.24,706.11,299.1,738,370.22Z"/><path class="cls-6" d="M704.83,140c-39.17-19.23-81-32.19-120.21-49.79-4.56,18.79-11.9,36.76-20.17,54.47,36.27,26.35,68.55,59.18,105,85.86a10,10,0,0,1,3.53,3.67c4.21,9.44-14.45,38-18.44,46.4-8.74,18.43-18.8,36.22-29.34,53.69-8.28,13.74-16.9,27.28-25.49,40.83,2.72,15.36,4.48,30.83,2,46.64-2.08,11.1-2.78,23.58-6.94,33.28-35.94,33.83-67.58,48.72-94.73,52.17,6,43.14,11.75,85.82,20.55,131.56,12.48,64.48,20.8,124.11,27.73,188.59,1.18,12.38,3,24.58,5.34,36.67,32.17,7.43,64,10.11,93.5,5.4,3.06-.49,6.35-1.23,8.37-3.58,2.23-2.61,2.24-6.39,2.14-9.81-2.86-93.44-4.18-186.52,5.62-279.69,2.65-25.17,13.64-50.36,22.92-73.9,17.34-44,36.52-87.52,51.75-132.21C706.11,299.1,690.3,222.24,704.83,140Z"/><path class="cls-5" d="M517.28,109q-1.37,3.09-3,6a92.59,92.59,0,0,0-52.17-6.47c-6.06,1-12.11,2.65-18.24,2.3-4.83-.27-9.49-1.77-14.09-3.25l-14.53-4.68C440.69,87.62,465,72.3,486.78,51.84c3.12-2.93,4.91-7,7.44-10.44A18.47,18.47,0,0,1,497.5,38q5.63,3.13,11,6.66c0,.12-.08.25-.1.38l.31-.25q5.88,3.85,11.45,8.15t11.58,8.39Q528,74.63,524.27,88C522.27,95.1,520.27,102.24,517.28,109Z"/><path class="cls-5" d="M508.72,44.74A3.82,3.82,0,0,0,510,42.08c2.12-2.21,5.8-3.06,8.46-1.42,3.64,2.24,4,8.25.67,10.92,3.56.05,5.91-4.49,9.47-4.43,2.39.05,4.26,2.31,4.7,4.66s-.22,4.75-.86,7l-.68,2.42q-5.88-4-11.58-8.39T508.72,44.74Z"/><path class="cls-5" d="M508.72,44.74l-.21-.13A6.05,6.05,0,0,1,510,42.08,3.82,3.82,0,0,1,508.72,44.74Z"/><path class="cls-5" d="M508.51,44.61q-5.38-3.53-11-6.66a9.64,9.64,0,0,1,7.45-2.4c3,.47,5.23,3.76,5,6.53A6.05,6.05,0,0,0,508.51,44.61Z"/><path class="cls-14" d="M444.52,156.32a23.41,23.41,0,0,0-.78,2.42c-1.56,6-.94,12.59-3.54,18.23-10.51,22.73-49.83,11.49-59.17,36.18-1.51,4-2.09,8.56-5,11.66-3.48,3.68-9.13,4.11-14.18,3.81-7.95-.46-27.59,1.81-19.51,15.28,2.24,3.74,6.64,5.78,11,6.25,8.55.95,16.73-3.23,24.28-7.34a16.05,16.05,0,0,1,5.86-2.26c2.09-.23,4.44.56,5.44,2.42,4.48,8.39-11.24,10.84-15.53,13.74-12.05,8.14-13,26.68-30.93,16.55-5-2.81-10.72-6.08-16-4-5,2-7.14,9.12-4,13.51,1.72,2.4,4.49,3.78,7.15,5.06,4.1,2,8.67,4.88,13,6.13,5.54,1.61,9.53-1.51,14.35-1.1,2.16.18,2.35,3.34,1.45,5.32-7.94,17.33-28.67,18.51-33,39.49C321.81,355,335.5,352.8,344.19,344c5.79-5.88,15.75-17.42,22.11-5.52,6.79,12.7-13.69,18.59-13.82,31.51,0,2.77,1,5.88,3.61,6.93,3.72,1.51,8.15-2.13,11.79-.44,3,1.39,3.49,5.69,2.19,8.76-3.22,7.63-8.71,11-7.64,20.29a18.26,18.26,0,0,0,17.41,15.63c6.72,0,12.83-3.68,19.35-5.33,8.16-2.07,11.14,3,18,4.37,9.79,2,21,.66,30.74-1.1,22.15-4,45.38-7,66.24,2.84,6.44,3,10,7.17,17.6,7.76,9,.69,17-6.22,25.9-5.16,7.72.93,14.6,8.61,17,15.71,1.57,4.56,2.2,9.4,3.76,14s4.3,9,8.68,11.07,10.52.6,12.34-3.87c2-4.92-1.77-10.23-2.1-15.54a12.22,12.22,0,0,1,4.78-10.35,4.38,4.38,0,0,1,2.19-1c1.9-.16,3.32,1.64,4.36,3.24,4.69,7.2,13,16.1,15.63,24.25s-2.15,17.13-5.67,24.21c-1.84,3.69-3.73,7.68-3.13,11.76s4.91,7.83,8.72,6.23c3-1.25,4.08-5,4-8.23s-.86-6.56-.09-9.71c1.89-7.66,11.48-10.27,16.51-16.35,5.39-6.5,4.79-16.05,2.61-24.2-1.3-4.83-3.06-9.75-2.32-14.69,1.22-8.18,8.73-13.75,12.87-20.9a27.45,27.45,0,0,0,3.31-17.81c-.86-5.57-4.24-9-1.69-14.92a3.56,3.56,0,0,1,1.17-1.6c1.08-.74,2.57-.29,3.72.33,7.7,4.13,7.19,12,7.85,19.5.83,9.41-2.77,17.63,2.34,26.57a9.69,9.69,0,0,0,4.61,4.55,6.21,6.21,0,0,0,8-5.13c.61-8.61-12.48-15.36-6.2-24.8,1.39-2.09,3.66-3.41,5.35-5.27,5.67-6.23,3.3-16.38-1.39-23.38s-11.34-12.83-14.3-20.72c-3.74-10,6.56-13,8.84-20.87,1.38-4.75-2-9.39-3.88-14s-.58-11.74,4.38-11.78a6.76,6.76,0,0,1,3.2.92c6.69,3.56,16.27,13.48,11.12,21.53-2.19,3.42-6.35,5.64-7.31,9.59a6.9,6.9,0,0,0,3,7.28c2.82,1.72,6.63,1.1,9.31-.83s4.39-4.93,5.61-8c4.61-11.59,2-21.76-3.06-32.63-2.77-6-6.11-12-6.4-18.55-.47-10.89,7.56-21.06,6.1-31.87-.93-7-5.68-12.78-10.71-17.68s-10.63-9.42-14.17-15.49c-6.36-10.89.63-23.38-4.27-35.38-4.49-11-13.63-20-24.17-25.27-16.14-8-34.93-8.6-52.91-7.33-4.28-12.58-17.94-20-31.18-21.07-24.24-1.9-41.33,13.53-64.4,2.13C482.19,119.49,451.42,138.21,444.52,156.32Z"/><path class="cls-15" d="M432.28,378l10.5-40.18,100.27,36.11q-3.84,17.07-6,34.45c-.77,6.11-1.37,12.42.32,18.34,1.35,4.75,4.51,9.22,8.83,11.39C516.25,433.92,466.75,457.64,432.28,378Z"/><path class="cls-16" d="M424.33,408.45,432.28,378c29.1,54.87,84,55.93,113.89,60.11a12.63,12.63,0,0,0,3.41,1.17l.45.07c-10.76,12.13-26.51,20.65-40.95,26.52-17.82,7.37-37.49,6.14-54.69.61-12.29-4.3-22.74-12.29-31.95-22.12-2.62-3-5.39-5.88-8.22-8.79C418.93,427.38,422,417.57,424.33,408.45Z"/><path class="cls-5" d="M532,196.62c23.78,1.22,47.86,16.74,59.88,37.11,6.25,10.59,7,26.76,6.81,38.87-.34,17.91-6,34.18-12.86,50.48q-5.9,13.94-12,27.79c-2.86,6.54-5.78,13.11-10,18.86-4.67,6.36-10.78,11.5-16.82,16.57s-12.19,10.2-19.44,13.28c-11.28,4.79-24.36,4.1-35.93.07s-21.81-11.18-31.16-19.1c-6.44-5.45-12.63-11.43-16.8-18.77-7.84-13.83-7.59-30.72-5.92-46.53a313.45,313.45,0,0,1,9.75-51.1c3.21-11.54,7.15-23,13.7-33C476.25,208.1,504.56,195.2,532,196.62Z"/><path class="cls-14" d="M583.05,271.7a19.32,19.32,0,0,0-4.4-3.26c-6-3.45-12.7-5.7-19.28-7.73-2.69-.82-7.19-1.77-8.55,1.62-1.2,3,1.56,5.62,3.89,6.84A94.42,94.42,0,0,0,569.38,275c4.38,1.44,8.4,2.13,11.56,5.86,3.09,3.09,5,6.86,7.06,10.68a2.06,2.06,0,0,0,.68.86.73.73,0,0,0,1-.17,1,1,0,0,0,.07-.58C589.21,285,587.91,276.67,583.05,271.7Z"/><path class="cls-14" d="M521,255.14c-6.65-1.34-12.66-5.62-19.15-7.68-4.82-1.53-10.39-2.71-15.46-1.87-1.41.23-10.4,3.19-11.38,1.93-.77-1,.46-2.33,1.54-3,5.37-3.31,11.05-6.71,17.34-7,3.76-.16,7.47.82,11.08,1.89,5.29,1.58,20.47,4.23,22.75,10.37C529.7,255.26,524.8,255.91,521,255.14Z"/><path class="cls-17" d="M538.5,301.74a44.61,44.61,0,0,0,.28,18.05,17.4,17.4,0,0,1,.6,3.71,7.55,7.55,0,0,1-8.74,7.07c-1-.21-2.12-1.11-1.65-2,.38-.7,1.37-.64,2.16-.64a5.59,5.59,0,0,0,4.28-2.11c-1.26-1.85-3.85-2.3-6.07-1.94s-4.3,1.34-6.52,1.68-4.82-.14-6-2a17.22,17.22,0,0,1-1.21-3.29,7.75,7.75,0,0,0-7.44-4.88,3.72,3.72,0,0,0-2.59,1,1.9,1.9,0,0,0-.07,2.57c1.11,1,3.71.4,3.8,1.92a1.54,1.54,0,0,1-.86,1.31c-4.73,2.88-10.19-4.58-9.14-8.8.67-2.7,2.58-4.91,4.57-6.85"/><path class="cls-17" d="M513.2,277.75c-2.56-16.4-24.5-18.26-37.39-16.77"/><path class="cls-17" d="M541.93,289c12.67-10.71,30.47,2.25,39.24,11.82"/><path class="cls-18" d="M518.22,366.09a37.89,37.89,0,0,1-27.36-8.9c-5.31-4.74-10.28-13.11-7-20.28,2.38,5.93,8.32,9.52,14,12.47,10.05,5.22,21.12,9.86,32.35,8.45,2.08-.26,4.52-.27,3.15,2-1.06,1.72-5.23,3.39-7,4.21A25.51,25.51,0,0,1,518.22,366.09Z"/><path class="cls-17" d="M425.73,83.85a19.88,19.88,0,0,0-19.33-3c-1.89-4.87-4.12-12.27-9.11-13.8a9.44,9.44,0,0,0,7.1-11.22,40,40,0,0,0,16.21,3.69c3.37,0,6.95-.42,9.57-2.55s3.72-6.37,1.55-9a21.37,21.37,0,0,0,5.8,4.18,7.33,7.33,0,0,0,6.89-.28c2.72-1.85,2.33-4.73,1.57-7.48,1.95,1.8,4,5.14,7,3.59,3.55-1.8,2.65-7.47,1.8-10.53a27.46,27.46,0,0,0-7.08-12.08"/><path class="cls-17" d="M436.86,75.39a67.16,67.16,0,0,1,42.69-9.76"/><path class="cls-17" d="M431.25,28.72c3.57,3.65,7.13,6.86,10.7,10.52,1.63,1.66,3.38,3,4,5.21"/><path class="cls-17" d="M431.72,48c-6.45-5.14-14.31-6.6-21.47-10.71"/><path class="cls-17" d="M404.39,55.85c.55-3.14-1-6.17-3.39-8.31a5.2,5.2,0,0,0-2.68-1.4,2.76,2.76,0,0,0-2.69,1.09"/><path class="cls-17" d="M397.29,67.07c-3.4-1.5-6.32-2-10-2.73a5.55,5.55,0,0,0-4,.25"/><path d="M438.85,40.37a6.33,6.33,0,0,0-4.93-.57,2.39,2.39,0,0,0-1,.59c-.87.93-.39,2.46.34,3.49a9.62,9.62,0,0,0,3.19,2.86,5.69,5.69,0,0,0,4.39.69C445.94,45.8,441.3,41.64,438.85,40.37Z"/><path d="M420.13,46.17a8.91,8.91,0,0,0-4.48,1.77,2.37,2.37,0,0,0-.81,1.44c-.12,1.21,1.13,2.08,2.27,2.5a12.73,12.73,0,0,0,6.64.58c1.61-.3,3.39-1.16,3.69-2.77a3,3,0,0,0-1.53-3C424.64,46,422.31,45.83,420.13,46.17Z"/><path d="M398.21,50.79a3,3,0,0,0,.05-2.78c-.71-1.07-2.33-1-3.5-.5a9.11,9.11,0,0,0-3.18,2.68c-1.49,1.83-1.67,5.33,1.5,5.35C395.41,55.55,397.43,52.67,398.21,50.79Z"/><path d="M384.34,70.48a7.52,7.52,0,0,1,3.28,4.26,2.29,2.29,0,0,1-.15,2.15,1.72,1.72,0,0,1-1.54.52,4.8,4.8,0,0,1-1.58-.59,13.42,13.42,0,0,1-3.7-2.75c-.73-.82-2.35-3.06-1.51-4.1S383.38,69.92,384.34,70.48Z"/><path d="M447,34.69c-2.74.08-2.77,3-2,5.06.85,2.28,5.41,7,7.4,3,1.34-2.63-1.79-6.5-3.94-7.73a2.43,2.43,0,0,0-.93-.34Z"/><path class="cls-19" d="M501.3,269.16c0-.21,0-.42,0-.62a23.35,23.35,0,0,1,10.55,11.07c-.54-1.2-8.32-3.2-13.86-4.61A6.78,6.78,0,0,0,501.3,269.16Z"/><path class="cls-19" d="M488.37,272.05a46,46,0,0,1-13.83-7.63,108.21,108.21,0,0,1,14.52.68,6.82,6.82,0,0,0-1.35,4.06A6.7,6.7,0,0,0,488.37,272.05Z"/><path class="cls-19" d="M565.19,293.23a89.91,89.91,0,0,1,14.68,11c-6.82-.07-13.23-2.31-19.46-4.86A6.78,6.78,0,0,0,565.19,293.23Z"/><path class="cls-19" d="M552.7,289.21a6.73,6.73,0,0,0-1.07,3.65,6.84,6.84,0,0,0,.46,2.45c-4.52-2.23-9.37-4.47-10.33-4A23.11,23.11,0,0,1,552.7,289.21Z"/><path class="cls-14" d="M488.37,272.05a6.7,6.7,0,0,1-.66-2.89,6.82,6.82,0,0,1,1.35-4.06,51.19,51.19,0,0,1,7.27,1.48,25.85,25.85,0,0,1,4.93,2c0,.2,0,.41,0,.62A6.78,6.78,0,0,1,498,275c-2.29-.58-4.2-1.06-5.05-1.35C491.38,273.14,489.87,272.62,488.37,272.05Z"/><path class="cls-14" d="M552.7,289.21a25.3,25.3,0,0,1,9.29,2.37c1.09.5,2.16,1.06,3.2,1.65a6.78,6.78,0,0,1-4.78,6.13l-.46-.19c-1.22-.5-4.44-2.18-7.86-3.86a6.84,6.84,0,0,1-.46-2.45A6.73,6.73,0,0,1,552.7,289.21Z"/><circle class="cls-20" cx="490.23" cy="266.86" r="1.37"/><circle class="cls-20" cx="554.07" cy="290.87" r="1.37"/><path class="cls-17" d="M514.79,112.52c-12.6-4.2-25.48-8.44-38.76-8.32-8.7.07-17.26,2-25.91,3-12.77,1.46-24.23-1.86-36.51-4.69"/><path class="cls-21" d="M498.66,334.24a20.32,20.32,0,0,0-3.65.36c-2,.38-4,.89-5.95,1.43-.69.19-5.48.75-5.67,1.06-.37.62.31,1.33.91,1.72,5.81,3.76,11.5,3.5,18.16,4.25,6.86.77,13.93,4.65,18.85,9.45a27.37,27.37,0,0,0,6.77,5.36,8.55,8.55,0,0,0,7.12.45c-2.4-4.71-5.13-9.48-9-13.19-1.64-1.59-3.89-3.62-6.2-4.1-4.18-.86-6.94-1-10.31-4.07C506.94,334.4,502.28,334.21,498.66,334.24Z"/><path class="cls-14" d="M622.43,255a107.67,107.67,0,0,0-6.38,9.2c-6.76,11.4-9,24.82-12.08,37.7s-7.68,26.18-17.66,34.91c-3,2.66-8.13,4.64-10.71,1.53-1.93-2.32-.88-5.83.5-8.52a46.89,46.89,0,0,1,8.11-11.21c2.18-2.22,4.66-4.36,5.67-7.3,1.47-4.28-.6-9-.26-13.47.52-6.94,6.58-12.55,7-19.5.32-5.24-2.66-10.19-2.79-15.43-.15-6.18,3.35-13.38-.84-17.93a4.09,4.09,0,0,0-4.19-1.38,4.7,4.7,0,0,0-1.47,1,12.21,12.21,0,0,0-4,9.71c.26,3.65,2.31,7,2.31,10.7s-4,7.64-7,5.53c-1.83-1.28-1.94-4-1.4-6.13s1.56-4.29,1.34-6.51c-.34-3.48-3.56-5.94-6.69-7.49s-6.65-2.78-8.78-5.56c-5.3-6.92,1.5-17.65-2.45-25.42-4.29-8.45-16.2-8-23.69-11.79-5.64-2.83-15.53-14.33-21.46-5-1.17,1.85-1.34,4.14-2.09,6.2a11.75,11.75,0,0,1-10.39,7.57c-2,.07-3.93-.37-5.89-.19a9.66,9.66,0,0,0-8,6.22c-1,2.93-.62,6.35-2.25,9-2.89,4.72-10,4.13-14.57,7.28-6.73,4.66-5.28,14.83-8,22.56-1.1,3.12-2.94,5.91-4.39,8.89-3.73,7.65-4.76,16.39-4.44,24.9.15,4.1.6,8.23,0,12.29s-2.48,8.15-6,10.35a2.59,2.59,0,0,1-1.89.52,2.64,2.64,0,0,1-1.56-1.68c-3.86-8.91,4.05-19.38,1.15-28.66-.56-1.8-1.52-3.46-2-5.29a19.92,19.92,0,0,1-.43-5.4c.32-24.11,4.53-50.16,21.8-67a20.55,20.55,0,0,1,8-5.3c3.53-1.08,7.4-.56,10.93-1.67,6.07-1.9,9.64-7.95,14.11-12.48a34,34,0,0,1,25.2-10c6.94.27,13.44,3.17,20.29,3.65,4.61.33,7.8-1.76,12.2-2.15,11.9-1.06,24.44,8.35,32.15,16.39,7,7.3,12.49,15.86,17.93,24.38"/><path class="cls-17" d="M496.88,37.86A46.75,46.75,0,0,0,492,50.61c-.56,2.47-.82,5.37.88,7.26,1.92,2.15,5.57,1.82,7.85.06s3.5-4.52,4.56-7.2a54.78,54.78,0,0,0-2.54,9.33,10.68,10.68,0,0,0,0,5.12,4.19,4.19,0,0,0,3.7,3.09,5.26,5.26,0,0,0,3-1.25A17.42,17.42,0,0,0,515,60c-.2,3.68-.23,7.37-.1,11.05a8.4,8.4,0,0,0,.74,3.79c2.22,4.08,7.28,2.2,9.92-.09,5-4.32,6.16-11.94,7.83-18"/><path class="cls-17" d="M510.58,40.38c-3.19,3-4.15,6.11-5.33,10.35"/><path class="cls-17" d="M522,49.58c-1.84,3.31-5.26,6.54-7,10.43"/><path class="cls-22" d="M519.58,75.05c-4.24-.71-1-8.65,2.79-8a2.48,2.48,0,0,1,2,1.72c.28,1.19-.56,3.16-1.12,4.2A3.67,3.67,0,0,1,519.58,75.05Z"/><path class="cls-23" d="M505.73,60.35a2.21,2.21,0,0,1,1.55-.66,2,2,0,0,1,1.48,1.12,4.55,4.55,0,0,1-.67,4.82c-.73.94-1.95,1.72-3.07,1.32a2.16,2.16,0,0,1-1.3-1.4C503.17,63.87,504.5,61.43,505.73,60.35Z"/><path class="cls-14" d="M494.51,50.74l0-.05c1.18-1.57,3-2.63,4.49-.88a3.87,3.87,0,0,1,.68,2.85,10.41,10.41,0,0,1-1.15,4.19c-.62,1.15-1.72,2.26-3,2.1a3.13,3.13,0,0,1-2.2-1.85C492.14,54.79,493.05,52.71,494.51,50.74Z"/></svg>