<svg xmlns="http://www.w3.org/2000/svg" xmlns:xlink="http://www.w3.org/1999/xlink" viewBox="0 0 336.82 771.07"><defs><style>.cls-1,.cls-12,.cls-21,.cls-23,.cls-24,.cls-25,.cls-26{fill:none;}.cls-2{fill:#6200bd;}.cls-3{fill:#af00a6;}.cls-4{fill:#ff600a;}.cls-5{fill:#eec720;}.cls-6{fill:#417d00;}.cls-11,.cls-18,.cls-7{fill:#8c1a00;}.cls-11,.cls-12,.cls-15,.cls-21,.cls-7{stroke:#8c1a00;}.cls-11,.cls-12,.cls-15,.cls-16,.cls-19,.cls-21,.cls-22,.cls-23,.cls-24,.cls-25,.cls-7,.cls-8,.cls-9{stroke-linecap:round;}.cls-11,.cls-12,.cls-15,.cls-16,.cls-19,.cls-21,.cls-22,.cls-24,.cls-25,.cls-7,.cls-8,.cls-9{stroke-linejoin:round;}.cls-16,.cls-7,.cls-9{stroke-width:1.51px;}.cls-15,.cls-8{fill:#ff9d73;}.cls-8{stroke:#ff9d73;}.cls-22,.cls-8{stroke-width:0.75px;}.cls-9{fill:#ba3f6c;stroke:#ba3f6c;}.cls-10{fill:url(#New_Pattern_34);}.cls-11,.cls-19,.cls-24{stroke-width:0.5px;}.cls-12,.cls-15{stroke-width:0.63px;}.cls-13{fill:#f2835e;}.cls-14{fill:#e55c38;}.cls-16{fill:#4702ff;stroke:#4702ff;}.cls-17{fill:#fff;}.cls-19{fill:#417d01;stroke:#417d01;}.cls-20{fill:#ce6245;}.cls-21{stroke-width:0.71px;}.cls-22{fill:#c74a2a;stroke:#c74a2a;}.cls-23,.cls-25,.cls-27{stroke:#5bb000;stroke-width:1.3px;}.cls-23,.cls-26,.cls-27{stroke-miterlimit:10;}.cls-24{stroke:#e55c38;}.cls-26{stroke:#833be0;}.cls-27{fill:#5bb000;}</style><pattern id="New_Pattern_34" data-name="New Pattern 34" width="1133.86" height="765.35" patternTransform="matrix(0.24, 0, 0, -0.24, 740.89, 680.41)" patternUnits="userSpaceOnUse" viewBox="0 0 1133.86 765.35"><rect class="cls-1" width="1133.86" height="765.35"/><rect class="cls-1" width="1133.86" height="765.35"/><rect class="cls-2" x="846.12" y="-394.54" width="588.2" height="818.32"/><path class="cls-3" d="M1071.83-153.23a169.68,169.68,0,1,0-.06,339.36h.06"/><path class="cls-4" d="M1361.92,339.24a169.68,169.68,0,0,0-339.32-4.89"/><rect class="cls-2" x="279.19" y="-777.22" width="588.2" height="818.32"/><rect class="cls-2" x="-287.74" y="-394.54" width="588.2" height="818.32"/><path class="cls-4" d="M228.06,339.24a169.68,169.68,0,0,0-339.32-4.89"/><rect class="cls-2" x="846.12" y="370.81" width="588.2" height="818.32"/><path class="cls-3" d="M1071.83,612.13a169.68,169.68,0,1,0,0,339.35h0"/><path class="cls-5" d="M1241.47,578.93a169.68,169.68,0,0,0-339.32-4.88"/><rect class="cls-2" x="279.19" y="-11.87" width="588.2" height="818.32"/><path class="cls-3" d="M504.9,229.45a169.68,169.68,0,1,0-2.6,339.35h2.6"/><path class="cls-6" d="M710.17,365.93a169.68,169.68,0,1,0,0-339.36"/><path class="cls-5" d="M674.54,196.25a169.68,169.68,0,0,0-339.32-4.9"/><path class="cls-4" d="M795,721.92a169.68,169.68,0,1,0-339.29-6.7c0,.61,0,1.21,0,1.82"/><rect class="cls-2" x="-287.74" y="370.81" width="588.2" height="818.32"/><path class="cls-6" d="M143.24,748.6a169.68,169.68,0,0,0,0-339.35"/><path class="cls-5" d="M107.61,578.93A169.68,169.68,0,0,0-59.61,406.83,169.66,169.66,0,0,0-231.7,574v0"/><rect class="cls-2" x="279.19" y="753.49" width="588.2" height="818.32"/></pattern></defs><g id="Lag_2" data-name="Lag 2"><g id="Layer_2" data-name="Layer 2"><path class="cls-7" d="M133.4,176.15a38.73,38.73,0,0,1-7.22,12.76c-1.33,1.56-2.79,3-4.25,4.46L116.28,199c-.63.62-1.24,1.73-.54,2.27a1.59,1.59,0,0,0,1,.19c4-.28,6.89-3.71,9.58-6.66A71.2,71.2,0,0,1,138,184.51c-1.91,5.66-6.18,9.08-10.16,13.22-2.7,2.8-7.35,7.09-7.52,11.21a2.76,2.76,0,0,0,.5,1.88,2.49,2.49,0,0,0,2.76.56,7.37,7.37,0,0,0,2.43-1.74c6.44-6.15,10.18-13.63,16.26-20.17,1.18-1.27,2.5-2.77,2.21-4.47"/><path class="cls-8" d="M70.34,657c.35.55.81,1.16,1.46,1.18a2.06,2.06,0,0,0,1.34-.65,87.65,87.65,0,0,0,8.39-8.3,2,2,0,0,0,.37-2.81l-.08-.1Q74.5,634.17,67,622.14A4.33,4.33,0,0,0,64.77,620a4.11,4.11,0,0,0-2,.05c-3,.53-10,1-12.12,3.43-2.28,2.65,2.66,7.59,4.18,9.9Q62.57,645.22,70.34,657Z"/><path class="cls-8" d="M197.37,704.21a10.63,10.63,0,0,0,3.24,1.46c4,.87,12.74-.82,14.49-5a50.76,50.76,0,0,0,2.82-11.26l1.81-10.54A56,56,0,0,1,221,673c-5.42-3-11.77-5.62-18.05-5.82-2.22-.09-3.75.78-5.79.94-2.88.21-3.9-1.54-4.68,2.25-1.69,8.32-4.77,17.3-4.3,25.81a5.27,5.27,0,0,0,.47,2.24,5.72,5.72,0,0,0,2.81,2A60.78,60.78,0,0,1,197.37,704.21Z"/><path class="cls-9" d="M111.18,663a56.06,56.06,0,0,1,6.63,10.62,4.51,4.51,0,0,1,.64,2.76,4.32,4.32,0,0,1-1.19,2,41.84,41.84,0,0,1-12,8.95,20.68,20.68,0,0,0-4,2.11,11.5,11.5,0,0,0-1.69,1.86c-1.49,1.9-3,3.84-4.5,5.7a96.78,96.78,0,0,1-9.38,9.29c-9.35,8.41-18.8,16.9-29.81,23-3.41,1.88-8.59,4.39-11.84.85a9,9,0,0,1-1.13-1.59c-1.47-2.49-2.64-5.32-2.35-8.19"/><path class="cls-9" d="M181.66,717.34l-1.88,7.79a20.38,20.38,0,0,0-.84,6.67,10.15,10.15,0,0,0,3,6.2c1.33,1.32,4.11,1.94,5.16,3.27,1.2,1.54.14,2.85-.52,4.58-1.51,3.93-3,8.28-2.32,12.54.6,3.74,3.64,6.66,7,8.49,5.64,3.11,12.34,3.85,18.75,3.22,4.43-.43,9.8-1.14,13.91-3s3.88-7.9,3.71-11.87c-.11-2.8-1-4.9-2-7.46s-1.48-5.64-2.37-8.38"/><path class="cls-10" d="M98.69,378.29c-7.23,19.31-28.91,31.24-39.79,48.65-4,6.41-6,13.6-10.35,19.88C35.7,465.29,14.18,478.75,3.44,498.23-5.2,514,4.44,537,10.34,551.7c4,10,8.71,19.23,13.31,28.9,6.26,13.18,11,26.85,17.86,39.78,8.3,15.57,38.21,10.53,48.07-2.47,7-9.26-2.89-11.08-9-16.46-2.93-2.6-3.35-2.7-4.71-8a148.33,148.33,0,0,0-11.24-29.91c-4.83-9.78-4.54-17-3.89-27.34.12-1.89-1.1-8.55-.27-10.06,2.2-4,15.18-6.5,18.83-8.83,15.54-10,29.83-22.11,45.56-31.79,4.61-2.85,15.76-11.19,21.75-9.5,5.49,1.55,9.28,12.88,11.25,17.06,3.84,8.13,8.87,15.8,12,24.26,2.22,6,2.14,11.64,3,17.94,1.24,8.63,6.75,13.15,9.68,21,3.08,8.29.61,19.55.35,28.27-.28,9.18,2.07,16.87,4.5,25.85,3,11.22,5.51,20.82,4.38,32.83-1.52,16.09-12.76,29.66,9.42,35.68,5.95,1.62,10.87,3.35,17,3.39,6.38,0,5.45,0,8.89-4,11.63-13.4,9.74-27.39,9.65-44.29-.07-13.88,5.08-26.94,5.28-40.37.09-6.07-.23-23.41-4.65-27.69,6.62-10.17,5.86-17,4.77-28.53-.66-7,.2-14,.67-20.94.61-9-3.18-17.21-3.43-25.62-.19-6.59-.16-12.4-1-18.87-.62-4.63.59-9.1-.35-13.63-1.32-6.4-3.78-8.46-2.92-15.68,1.06-9,.45-16.81-.23-25.72-.6-7.88,4.6-15.2,3.53-22.64-.51-3.54-3.34-6.48-3.94-10.38-.55-3.58.47-7.47.11-11.06-.31-3.15-1-10.83-3.77-12.9s-11.44-.49-13.37-.41c-12.54.52-27.08,7-39.23,5.14"/><path class="cls-8" d="M137.56,202.25a18.49,18.49,0,0,0-1.24-13.39c-1-1.9-2.3-3.73-2.46-5.86-.09-1.26,0-2.89-1.11-3.41,0,1-1.61,1.17-2.25.42a3.77,3.77,0,0,1-.5-2.82l.84-9.55c.13-1.45.34-3,1.47-4,.81-.64,2-.83,2.54-1.69a3.36,3.36,0,0,0,.41-1.62c.68-8.52,1.13-17.54,7.2-24.16A34.82,34.82,0,0,1,165.3,125.1c4.49-.33,6.77.78,10.42,3.41,3.11,2.23,5.42,5.4,7.66,8.5,3.78,5.22,7.7,10.86,7.84,17.3a41.84,41.84,0,0,1-.67,6.61A68.11,68.11,0,0,0,190,168a1.8,1.8,0,0,0,.22,1.12c.21.29.59.43.82.71.48.58.19,1.44-.12,2.12a30.17,30.17,0,0,1-4,7.17q-1.85,1.92-3.5,4a30.91,30.91,0,0,0-1.81,3.47,29.52,29.52,0,0,1-7.58,9.63c-2.12,1.78-4.63,3.42-5.52,6"/><path class="cls-11" d="M146.63,136.46a22.84,22.84,0,0,1,7.06-1c1.59,0,4.13.16,5.16,1.56a2.64,2.64,0,0,1,.33,2.73,1.6,1.6,0,0,1-.85.81,2.36,2.36,0,0,1-1.12,0l-7-1.25c-2.52-.44-5.24-.48-7.46,1a1.44,1.44,0,0,1-.91.36,4.42,4.42,0,0,1,2.58-3.33A16.14,16.14,0,0,1,146.63,136.46Z"/><path class="cls-11" d="M175.48,143c1.49.24,3,.44,4.48.77,2,.43,2.66,1.18,4.13,2.54.44.4,1,.83,1.56.6-1.1-6.84-9.19-9.66-15.35-8.61a3.23,3.23,0,0,0-1.62.62c-.76.63-1.41,1.75-.5,2.55a3.66,3.66,0,0,0,1.83.66Z"/><path class="cls-12" d="M159.09,146.88c-.27,2.07-2,3.54-3.32,5.17a2.87,2.87,0,0,0-.7,1.44c0,.68.91,1.68,1.45,2s1.12.15,1.21-.34-.28-.75-.55-1.07c-1.21-1.45.86-.62,1.46-.11s1.68,1.95,2.66,1.76a1.49,1.49,0,0,0,.67-.43,3.34,3.34,0,0,1,2.63-1.2,1,1,0,0,1,.68.35.53.53,0,0,1,0,.71c-.24.22-.68.15-.85.43a.47.47,0,0,0,.28.61l.07,0c2.48.65,3.16-1.55,2.71-3.62a9.28,9.28,0,0,1-.44-3.26"/><path class="cls-13" d="M173.18,187.45a20.13,20.13,0,0,1-3.6-.64,40.26,40.26,0,0,0-7.71-1.41,107.39,107.39,0,0,0-15-.78c-4.52.14-8.73.6-13.22-.39.93,6.76,9,8.83,14.53,10.29a42.89,42.89,0,0,0,20.54.75c3.51-.8,7.54-1.63,8.63-5.66a1.14,1.14,0,0,0,0-1,1.22,1.22,0,0,0-.47-.33A11.68,11.68,0,0,0,173.18,187.45Z"/><path class="cls-14" d="M157.23,169.13a20,20,0,0,0,12.29-1.73,1.58,1.58,0,0,0,.91-.9c-4.69-2.43-9-4.25-14.46-4a58.46,58.46,0,0,0-8.09,1.39c.25,1.77,2,2.89,3.62,3.59A24.88,24.88,0,0,0,157.23,169.13Z"/><path class="cls-8" d="M280.54,48c-.49-1.94-1-3.87-1.63-5.77a13.91,13.91,0,0,0-2.09-4.46c-1.82-2.32-4.79-3.33-7.55-4.37-4.46-1.67-8.45-4.92-9.7-9.7-1.17-4.48-.21-9.22-1.39-13.7A3.11,3.11,0,0,1,259.4,6.7c1.76-1.21,7.17.68,7.23-1.79A4.65,4.65,0,0,1,270,.57a4.15,4.15,0,0,1,4.78,2.53,4.11,4.11,0,0,1,3.7-2.72,2.74,2.74,0,0,1,2.63,3.29c1.14-1.25,2.43-2.57,4.1-2.78s3.58,1.45,2.91,3c.65-1.5,5.07.72,5.62,1.59a27.1,27.1,0,0,1,2.25,6c.67,2,1.83,3.88,2.54,5.94,1.66,4.75,2,9.84,2.31,14.81l.5,7.85"/><path class="cls-12" d="M267.77,9.75a8.48,8.48,0,0,0,1.48,7.51,2.6,2.6,0,0,0,.66.62,1.85,1.85,0,0,0,1.89-.25,5.12,5.12,0,0,0,1.28-1.54,7.62,7.62,0,0,0,.78,1.81,2.28,2.28,0,0,0,1.72,1.2c1.76.18,3.32-1.67,3.74-3.19a3,3,0,0,0,2.44,3.47l.13,0c1.61.17,2.91-.6,3.3-3.83a3.48,3.48,0,0,0,.7,2.67c1.92,2.21,4.85.61,5.18-1.94a21.87,21.87,0,0,0-.08-2.92,16.67,16.67,0,0,1,.38-3.23L292,6.77"/><path class="cls-15" d="M264.86,6.4a39.91,39.91,0,0,1,8.74,0,5.16,5.16,0,0,1,1.82.43,1.91,1.91,0,0,1,1.14,1.4,2.4,2.4,0,0,1-1.05,2.06c-2.23,1.85-5.42,1.82-8.32,1.7a44.58,44.58,0,0,1-.27,6.73"/><path class="cls-8" d="M39,297.2a21.08,21.08,0,0,0-3.44-7,114.32,114.32,0,0,0-9.15-11.85c-2.14-2.43-4.44-4.87-5.52-7.93s-.56-8.42,3.36-9.22a4.17,4.17,0,0,1,.59-5.87,4.11,4.11,0,0,1,2.75-.94,3.84,3.84,0,0,1,2.6-4.77,3.7,3.7,0,0,1,1.4-.14,4.08,4.08,0,0,1,2.69-5.08,3.47,3.47,0,0,1,.7-.14c2.08-.13,3.86,1.38,5.39,2.79l6.9,6.4A107.55,107.55,0,0,1,43.05,240a7.29,7.29,0,0,1-.17-3.44,2.76,2.76,0,0,1,2.41-2.18c1.25,0,2.21,1.06,3,2.05a62.76,62.76,0,0,1,6.91,12.24A43.85,43.85,0,0,1,59.53,263a20.14,20.14,0,0,1,0,6.2,10.36,10.36,0,0,0,.1,5.13,119,119,0,0,0,4.06,13.9"/><path class="cls-12" d="M46.29,274.31a17.93,17.93,0,0,1,6.64-13.8"/><path class="cls-12" d="M25.08,273.13a13.56,13.56,0,0,0,7.09,2.21,2.9,2.9,0,0,0,2.62-1c.66-1.08-.42-2.43-.8-3.43a11.06,11.06,0,0,0,2.07,1.27c1.19.59,3.47,1.14,4.35-.35s-2-4.2-2.93-5.3a26.11,26.11,0,0,0,2.93,1.72,2.6,2.6,0,0,0,3.08-.64c1-1.47-.52-3.49-1.14-4.84a4.2,4.2,0,0,0,2.83,1,2.3,2.3,0,0,0,1.24-.2,2.06,2.06,0,0,0,.63-2.5c-1-3-3.31-5.55-4.5-8.56"/><path class="cls-2" d="M116.85,220.84c-5.36,5.38-9.93,11.56-14.41,17.66-6.32,8.6-8.31,17.67-11.85,27.76a65.6,65.6,0,0,0-3.67,21.9,123.06,123.06,0,0,1-1.74,21.26c-.58.09-1.08-.38-1.46-.83-4.14-5.08-5.47-12.43-10.81-16.21-2.19-1.54-5-2.41-6.56-4.56-1.27-1.69-1.6-3.91-2.68-5.73-2.45-4.18-4.78-1.59-7.33.28-3,2.17-7,3.25-10.28,5-2.19,1.21-9.69,4.26-9.66,7.1a6.45,6.45,0,0,0,1.75,3.77,9.93,9.93,0,0,1,2.2,3.57c.89,3.58-2.37,7.9-2.47,11.59-.15,5.13,1.59,8.36,3.69,12.94a125.11,125.11,0,0,0,6.82,13.1c4.87,8,10.38,15.52,15.22,23.49,2.14,3.53,3.43,7.85,5.48,11.18,3.47,5.64,8.18,10.7,14.1,13.7,7.51,3.82,16.35,2.84,24.33,1.43,8.94-1.61,17.2-5.58,26-7.59,25.53-5.84,50.67-11.31,76.5-15.24,8.73-1.32,21.61-9.88,22.58,4.14.22,3.18-1.22,7.61,1.31,10,7.08,6.75,29.31-13.67,33.63-18.5,9.11-10.2,9.9-22.15,6.76-35.35-5.64-23.72-8.85-47.74-14.2-71.41-1.69-7.5-5.15-16-3.16-23.75,1.16-4.52.86-3.85,4.46-7.44,27.78-27.64,76.26-53.07,75.41-98-.26-14.18-5.45-32-8.52-45.86A95.41,95.41,0,0,0,322.7,63c-1.86-4.35-4.26-10.66-7.26-14.3-2.16-2.61-6.17-2.38-9.53-1.91L303,37.22a2.56,2.56,0,0,0-1.18-1.79,2.49,2.49,0,0,0-1.68.07q-9.18,2.55-18.1,6A6.48,6.48,0,0,0,279,43.41c-1.06,1.41-1.18,2.18-.83,4.27.29,1.74.71,4.15,2.15,5.17C269,54.43,280.5,73,282,79c1.13,4.51,5.76,11.17,4.45,15.38A13.44,13.44,0,0,1,289.31,96a.88.88,0,0,1-.44,1.18l-.05,0c-10.55,5.24-.95,13.92-.24,21.17-6.55,1.24-4.72,4.67-6.87,7.66-1.82,2.53-.57,2.46-3.75,4.69-2.16,1.51-6,1.66-8.36,2.83A54.4,54.4,0,0,0,254,145.69c-7.44,8.08-11.94,9.71-22.6,12.66-10.45,2.88-20.7,6.77-31,10.22-5.82,1.94-11.82,4-16.39,8.08-4.4,3.95-7.07,9.41-10.29,14.37s-7.49,9.73-13.29,11c-5,1.11-10.06-.59-15.11-1.19s-11.09.44-13.42,5c-.64,1.22-.94,2.64-1.7,3.8a12.66,12.66,0,0,1-4,3.42A61,61,0,0,0,116.85,220.84Z"/><path class="cls-16" d="M69.18,629.06c4.33-1.79,19.94-7.25,19.67-8.22.92,3.31,2.73,10.62,3.15,11.7a68.37,68.37,0,0,0,5.66,11.32,84.45,84.45,0,0,0,7.54,10.3c1.88,2.22,6.33,4.82,7.35,7.49,2.17,5.71-11.38,15.2-15,18.34-6.61,5.66-13.46,11.12-19.1,17.78-3,3.5-5.56,7.3-8.64,10.69a51,51,0,0,1-13.2,10.38c-3.46,1.89-10.76,6.22-14.8,4.33-2.32-1.09-2.67-4.44-1.5-6.72s3.34-3.84,5.2-5.61a26.27,26.27,0,0,0,8-16c.47-4.17-.25-8.41.28-12.55s2.59-8.16,3.38-12.39c1-5.54-.42-11.25-2.47-16.51s-4.71-10.27-6.26-15.7a2,2,0,0,1,0-1.42,2.08,2.08,0,0,1,.89-.8c2.81-1.67,5.87-4.09,9.11-4.77,4.49,7.54,7.94,15.15,13.68,22,.24-7.4-3.07-14.4-4.45-21.66a1.7,1.7,0,0,1,0-1,1.51,1.51,0,0,1,.67-.56A8.22,8.22,0,0,1,69.18,629.06Z"/><path class="cls-16" d="M188.86,680c1.77,0,4.85.12,4.88.66.3,6.56-1.27,13-3,19.38.67-2.49,2.65-4.87,3.7-7.21,1.3-2.87,1.67-6.33,2.59-9.36a1.52,1.52,0,0,1,.6-.94,1.67,1.67,0,0,1,.77-.06l19.31,2.13a1,1,0,0,1,1,1.35c-.84,9.19-3.34,17.58-2.68,27a69.18,69.18,0,0,0,7.55,27c1.57,3,3.42,6.18,3.15,9.58-.32,3.84-3.4,7-6.92,8.53s-7.47,1.74-11.32,1.91c-7.33.28-16.25-.41-19.58-6.94-3.08-6,.59-13.72-1.94-20-4-10-8.88-10.23-2.78-21,2.32-4.1,1.05-9.35,1.2-13.84A144.39,144.39,0,0,1,187,680.75a1,1,0,0,1,.18-.48.79.79,0,0,1,.47-.2A7.62,7.62,0,0,1,188.86,680Z"/><path class="cls-17" d="M174.47,149.3a4,4,0,0,0-1.29,0,12.17,12.17,0,0,0-3.54,1.51c-.13.07-.29.22-.21.35,1.49.54,3,1,4.55,1.39a2.94,2.94,0,0,1,.49-3.26Z"/><path class="cls-17" d="M181.67,153.38a7.59,7.59,0,0,0-2-2.11h0a3,3,0,0,1-1.47,2.56A4.39,4.39,0,0,0,181.67,153.38Z"/><path class="cls-18" d="M179.69,151.3h0a8.93,8.93,0,0,0-3-1.51,12.43,12.43,0,0,0-2.18-.46,2.94,2.94,0,0,0-.49,3.26c1,.27,2,.56,3,.92.41.15.83.27,1.25.38A3,3,0,0,0,179.69,151.3Z"/><path class="cls-17" d="M148.37,147.49a2.82,2.82,0,0,1,.16-.92,6.74,6.74,0,0,0-5.07,2.79c1.12.91,2.74.8,4.17.59l1.72-.28A2.94,2.94,0,0,1,148.37,147.49Z"/><path class="cls-17" d="M154.86,147.57a3.92,3.92,0,0,0-.58-.29h0v.23a2.79,2.79,0,0,1-.26,1.2l1.75-.46C156,148.17,155.35,147.83,154.86,147.57Z"/><path class="cls-18" d="M154.24,147.26c-.49-.17-1-.36-1.47-.48a11.44,11.44,0,0,0-3.45-.29,2.69,2.69,0,0,0-.79.08,2.82,2.82,0,0,0-.16.92,3,3,0,0,0,1,2.18c1.56-.27,3.11-.61,4.65-1a2.79,2.79,0,0,0,.26-1.2A.65.65,0,0,1,154.24,147.26Z"/><path class="cls-7" d="M116.86,148.15c-1.67,1.44-3.38,3.94-2,5.63,1.67,2,8.54-5.86,10.38-6.2-.33,4.24-4.15,7.11-3.62,11.89a1.1,1.1,0,0,0,.51,1c.36.18.8-.12,1.11-.4,6.2-5.6,6.51-14.41,15-18.07-.48.21-2,7.1-2.33,8.05a22.79,22.79,0,0,1-3.49,6.7c-3.29,4.24-7.83,7.38-10.89,11.83A21.85,21.85,0,0,0,117.69,182c0,1.31-.5,3.76.56,4.78,1.57,1.5,3.36,1,3.6-1.19.42-3.87.46-7.83,1.63-11.55s3.72-7.29,7.46-8.39c9.44-2.78,8.28-14,10.94-22,1.46-4.41,4.15-8.7,8.37-10.63,2.14-1,5-1.92,5.25-4.53-6.19-.36-14.68,4.41-20.15,7.22A91.79,91.79,0,0,0,116.86,148.15Z"/><path class="cls-19" d="M173.54,131.39a23.58,23.58,0,0,1,8.3,3.81c4.87,3.78,6.89,11.2,7.54,17a42.24,42.24,0,0,1,.44,9.06c-.1.89-1.24,3.86-.92,4.64,1.93,4.58,6.81-3.48,7.5-5.64a24.53,24.53,0,0,0,.85-8.82c-.62-11.4-4.46-19.27-12.7-27a27.22,27.22,0,0,0-4.8-3.87c-3.5-2-7.7-2.41-11.74-2.72a29.12,29.12,0,0,0-18.06,5,68.6,68.6,0,0,0-7.7,6.11c-1.77,1.56-2.95,3.61-4.89,5a54.08,54.08,0,0,1,23-4.37A62.25,62.25,0,0,1,173.54,131.39Z"/><path class="cls-20" d="M33.77,274.91a2.29,2.29,0,0,1-1.39-1.16,1.18,1.18,0,0,1,0-1.18,1.06,1.06,0,0,1,1.07-.34,1.58,1.58,0,0,1,1.22.87,1.28,1.28,0,0,1-.22,1.45,1.08,1.08,0,0,1-1.41,0"/><path class="cls-20" d="M46.82,237.29c.33.52.75,1.09,1.37,1.13a.66.66,0,0,0,.55-.21.91.91,0,0,0,0-.85c-.24-.63-1.19-2.56-2-2.63C45.38,234.62,46.45,236.75,46.82,237.29Z"/><path class="cls-20" d="M45.18,259.75A4.18,4.18,0,0,1,47,262.57c0,1.06-1.12,1.05-1.85.46a5,5,0,0,1-1.68-2.22,1.06,1.06,0,0,1,.2-1A1.26,1.26,0,0,1,45.18,259.75Z"/><path class="cls-12" d="M31.92,249.75c3.2,3.76,7.23,9.34,10.43,13.09"/><path class="cls-12" d="M27.86,255a74.6,74.6,0,0,0,9.62,11.58"/><path class="cls-12" d="M24.3,261.75c2.92,3.14,6.52,6.29,9.69,9.17"/><path class="cls-20" d="M39.87,271.51c-.24,1.78-3-.19-3.49-.72-.82-1-.23-1.92,1-1.71A3.59,3.59,0,0,1,39.81,271,.92.92,0,0,1,39.87,271.51Z"/><path class="cls-20" d="M42.89,266.85c-.33,2.21-2.75-.18-3.15-1.06-.49-1.07.49-2.42,1.66-1.75a2.92,2.92,0,0,1,1.09,1.34A2.39,2.39,0,0,1,42.89,266.85Z"/><path class="cls-7" d="M187.84,154.81c-.22,5.44-.32,11.31,2.79,15.78,1.94,2.8,5.66,4.8,8.77,3.39a1.64,1.64,0,0,0,.74-.53c.53-.81-.3-1.81-1-2.42-3.59-2.93-7.8-6.77-7.2-11.81.28-2.34,1.39-2.82,3.4-3.25,2.72-.58,4.6-1,6.95-2.82a41.78,41.78,0,0,0,10.39-11.73c1-1.75,2-3.75,1.55-5.75a2.24,2.24,0,0,0-1.33-1.77c-1.18-.37-2.23.79-2.93,1.81-4.06,5.82-8.91,11.41-15.34,14.42a1.74,1.74,0,0,1-.83.24,1.41,1.41,0,0,1-1.22-1.45,3.91,3.91,0,0,1,.72-2c4.47-7.41,11.68-10.85,10.95-20.44a5.43,5.43,0,0,0-.65-2.64,1.89,1.89,0,0,0-2.36-.8,2.83,2.83,0,0,0-1.06,1.7A44,44,0,0,1,195,135.81c-1.77,2.62-5.88,5.06-6.62,8.07C187.49,147.24,188,151.4,187.84,154.81Z"/><path class="cls-21" d="M169.71,149.42c1.24-1.83,4.6-1.79,6.51-1.5a10.32,10.32,0,0,1,6.76,3.72"/><circle class="cls-17" cx="179.14" cy="151.88" r="0.3"/><path class="cls-17" d="M153.35,147.27a.29.29,0,0,1,.3.3.3.3,0,0,1-.3.3.31.31,0,0,1-.3-.3A.3.3,0,0,1,153.35,147.27Z"/><path class="cls-21" d="M155.72,147a9.17,9.17,0,0,0-6.17-2.31c-2,0-4.91.33-6.21,2"/><path class="cls-22" d="M152.73,160.75a16.94,16.94,0,0,1,2.73-1.36,3.5,3.5,0,0,1,2.88-.25c.56.28.94.89,1.55,1.06s1.48-.3,2.23-.42c1.86-.27,3.46,1.58,4.65,2.73,1.36,1.3,2.66,2.77,4.12,4l-1.31.16a2.13,2.13,0,0,1-.87,0,2.3,2.3,0,0,1-.66-.25c-1.09-.53-2.1-1.19-3.14-1.82a21.72,21.72,0,0,0-3.25-1.68,12.29,12.29,0,0,0-6.93-.27,13.48,13.48,0,0,0-3.06,1.1,6.93,6.93,0,0,1-3.53.19c-.13,0-.3-.1-.26-.22a.25.25,0,0,1,.12-.11C149.59,162.75,151.18,161.75,152.73,160.75Z"/><path class="cls-23" d="M282.7,52.69c6.28-2,16.69-5,23.2-5.9"/><path class="cls-24" d="M132.55,166.32a13.68,13.68,0,0,0-.85,4.91,4.67,4.67,0,0,1-.5,2.93,7.9,7.9,0,0,1-.4-2.2"/><path class="cls-20" d="M288.3,19.18c-1.68.37-1.84-1-1.14-2.11a1.18,1.18,0,0,1,1.52-.52,1.13,1.13,0,0,1,.42.42,1.47,1.47,0,0,1,0,1.8A1.62,1.62,0,0,1,288.3,19.18Z"/><path class="cls-20" d="M272.44,9.05a2.88,2.88,0,0,0,.56.2,2.47,2.47,0,0,0,2.61-.44,1.25,1.25,0,0,0,0-1.76,1.19,1.19,0,0,0-.59-.33,2.59,2.59,0,0,0-2.86,1.19,1,1,0,0,0,.07,1A1.33,1.33,0,0,0,272.44,9.05Z"/><path class="cls-25" d="M41.49,302.32c5.15-2.19,10.23-4.55,15.31-6.92A55,55,0,0,0,67,289.75"/><path class="cls-12" d="M285.18,15.53c.51-3.94,1-7.94,2.62-11.58"/><path class="cls-12" d="M279.32,15.87A54.49,54.49,0,0,1,281,4.15"/><path class="cls-12" d="M273.07,16a28.41,28.41,0,0,1,.26-4.43"/><path class="cls-20" d="M275.61,16.75a1.5,1.5,0,0,1,.3,0c.72-.05,1.25.28,1.29,1a1.28,1.28,0,0,1-.32,1,1.16,1.16,0,0,1-.62.27,1.32,1.32,0,0,1-1.6-.83C274.38,17.28,274.86,16.85,275.61,16.75Z"/><path class="cls-20" d="M282.29,17.2a1.11,1.11,0,0,1,1,.8,1.19,1.19,0,0,1-1.91,1.15C280.49,18.47,281.29,17.16,282.29,17.2Z"/><path class="cls-20" d="M270.23,16.05a1.36,1.36,0,0,1,1.61.42.83.83,0,0,1,.14,1,.91.91,0,0,1-.37.3c-.49.25-1.49.49-1.91,0a1.21,1.21,0,0,1,.42-1.66A.3.3,0,0,1,270.23,16.05Z"/><path class="cls-12" d="M277.88,21.06a11.86,11.86,0,0,1,4.75,3.69,33.13,33.13,0,0,1,3.28,5,8.13,8.13,0,0,1,1.42,3.9"/><path class="cls-26" d="M93.18,256.56A297,297,0,0,0,92,321c.7,7.66,1.7,15.33,1.3,23-.36,6.84-1.83,13.61-1.88,20.47s1.55,14.11,6.37,19"/><path class="cls-27" d="M228.43,409.17c2.61.93,5.23,1.82,7.88,2.54a17.68,17.68,0,0,0-1,5.68c5.81-.08,11.2-.25,16.85-2a3.49,3.49,0,0,0,2-1.18,3.56,3.56,0,0,0,.31-2.31q-1.65-17.76-3.29-35.52c-.77-8.29,0-17.86-1.77-26-.36-1.63-.87-3.41-2.26-4.35-1.57-1.07-3.67-.68-5.53-.26-20.65,4.72-41.39,9-62.07,13.68-13.78,3.1-27.88,4.62-41.55,8.29-13.47,3.61-25.47,11.46-39.14,14.37-3.39.72-5.63,3.52-8.08,5.67-4.25,3.72-8.8,7.34-13,11.17,1.07-1,15.83,5,17.91,5.53a120.52,120.52,0,0,0,20.87,4c12.21,1,24.4-1.81,36.67-2.26q23-.84,46-3.41C209.57,401.75,218.94,405.75,228.43,409.17Z"/><path class="cls-26" d="M224.89,162.44c-5.15,4.93-4.08,13.29-2.61,20.27,3.28,15.63,7.36,32.58,19.93,42.44,3.46,2.7,7.66,5,9.3,9.1,1.08,2.69.84,5.69.73,8.57-1,26.31,9.74,51.46,15.07,77.24,1.26,6.13,1.88,13.43-2.65,17.74-3.63,3.45-9.61,3.88-12.6,7.89"/></g></g></svg>